<?xml version="1.0" encoding="UTF-8" standalone="no"?>
<svg
   xmlns:dc="http://purl.org/dc/elements/1.1/"
   xmlns:cc="http://creativecommons.org/ns#"
   xmlns:rdf="http://www.w3.org/1999/02/22-rdf-syntax-ns#"
   xmlns:svg="http://www.w3.org/2000/svg"
   xmlns="http://www.w3.org/2000/svg"
   xmlns:sodipodi="http://sodipodi.sourceforge.net/DTD/sodipodi-0.dtd"
   xmlns:inkscape="http://www.inkscape.org/namespaces/inkscape"
   width="865"
   height="250"
   id="svg5974"
   version="1.1"
   inkscape:version="0.92.5 (2060ec1f9f, 2020-04-08)"
   sodipodi:docname="app_header_logo.svg"
   inkscape:export-filename="/run/user/1000/gvfs/smb-share:server=raspiserver,share=web/html/OpenDoor/kapkara_ksm.png"
   inkscape:export-xdpi="28.56072"
   inkscape:export-ydpi="28.56072">
  <defs
     id="defs5976">
    <clipPath
       id="_clipPath_nXuP1H4JEuJEGNecXDwHu9dkKVCaACbs">
      <rect
         y="0"
         x="0"
         id="rect700"
         height="315"
         width="560" />
    </clipPath>
    <clipPath
       id="_clipPath_5GnptCOllSOJ3bO73qvNTUgcvzTIUkS6">
      <rect
         id="rect993"
         height="315"
         width="560"
         x="0"
         y="0" />
    </clipPath>
    <clipPath
       id="_clipPath_nXuP1H4JEuJEGNecXDwHu9dkKVCaACbs-7">
      <rect
         width="560"
         height="315"
         id="rect700-5"
         x="0"
         y="0" />
    </clipPath>
    <clipPath
       id="_clipPath_5GnptCOllSOJ3bO73qvNTUgcvzTIUkS6-3">
      <rect
         width="560"
         height="315"
         id="rect993-5"
         x="0"
         y="0" />
    </clipPath>
  </defs>
  <sodipodi:namedview
     id="base"
     pagecolor="#b8b8b8"
     bordercolor="#666666"
     borderopacity="1.0"
     inkscape:pageopacity="1"
     inkscape:pageshadow="2"
     inkscape:zoom="1.5734104"
     inkscape:cx="448.95688"
     inkscape:cy="-2.1124177"
     inkscape:document-units="px"
     inkscape:current-layer="layer5"
     showgrid="false"
     inkscape:window-width="1920"
     inkscape:window-height="1007"
     inkscape:window-x="0"
     inkscape:window-y="0"
     inkscape:window-maximized="1"
     borderlayer="true"
     showguides="true"
     inkscape:guide-bbox="true"
     inkscape:document-rotation="0" />
  <metadata
     id="metadata5979">
    <rdf:RDF>
      <cc:Work
         rdf:about="">
        <dc:format>image/svg+xml</dc:format>
        <dc:type
           rdf:resource="http://purl.org/dc/dcmitype/StillImage" />
        <dc:title />
      </cc:Work>
    </rdf:RDF>
  </metadata>
  <g
     inkscape:label="MAIN"
     inkscape:groupmode="layer"
     id="layer1"
     transform="translate(0,669.63782)"
     style="display:inline" />
  <g
     inkscape:groupmode="layer"
     id="layer5"
     inkscape:label="TR"
     style="display:inline"
     transform="translate(0,1661)">
    <flowRoot
       xml:space="preserve"
       id="flowRoot746"
       style="font-style:normal;font-weight:normal;font-size:40px;line-height:1.25;font-family:sans-serif;letter-spacing:-46.52999878px;word-spacing:0px;fill:#000000;fill-opacity:1;stroke:none"
       transform="translate(0,-1539)"><flowRegion
         id="flowRegion748"><rect
           id="rect750"
           width="220.92999"
           height="185.42339"
           x="356.3811"
           y="-16.656542" /></flowRegion><flowPara
         id="flowPara752" /></flowRoot>    <g
       aria-label="Sınav Kapısı"
       style="font-style:normal;font-weight:normal;font-size:44.47738647px;line-height:1.25;font-family:sans-serif;letter-spacing:0px;word-spacing:0px;fill:#ffffff;fill-opacity:1;stroke:none;stroke-width:1.11193478"
       id="text760">
      <path
         d="m 252.25955,-1475.6737 q -12.8,0 -19.36,-7.2 -6.56,-7.36 -6.56,-20.96 v -6.4 h 16.64 v 7.68 q 0,10.88 9.12,10.88 4.48,0 6.72,-2.56 2.4,-2.72 2.4,-8.64 0,-7.04 -3.2,-12.32 -3.2,-5.44 -11.84,-12.96 -10.88,-9.6 -15.2,-17.28 -4.32,-7.84 -4.32,-17.6 0,-13.28 6.72,-20.48 6.72,-7.36 19.52,-7.36 12.64,0 19.04,7.36 6.56,7.2 6.56,20.8 v 4.64 h -16.64 v -5.76 q 0,-5.76 -2.24,-8.32 -2.24,-2.72 -6.56,-2.72 -8.8,0 -8.8,10.72 0,6.08 3.2,11.36 3.36,5.28 12,12.8 11.04,9.6 15.2,17.44 4.16,7.84 4.16,18.4 0,13.76 -6.88,21.12 -6.72,7.36 -19.68,7.36 z"
         style="font-style:normal;font-variant:normal;font-weight:bold;font-stretch:normal;font-size:160px;font-family:'Bebas Neue';-inkscape-font-specification:'Bebas Neue Bold';fill:#ffffff;fill-opacity:1;stroke-width:1.11193478"
         id="path932" />
      <path
         d="m 288.89951,-1589.2737 h 17.6 v 112 h -17.6 z"
         style="font-style:normal;font-variant:normal;font-weight:bold;font-stretch:normal;font-size:160px;font-family:'Bebas Neue';-inkscape-font-specification:'Bebas Neue Bold';fill:#ffffff;fill-opacity:1;stroke-width:1.11193478"
         id="path934" />
      <path
         d="m 319.61942,-1589.2737 h 22.08 l 17.12,67.04 h 0.32 v -67.04 h 15.68 v 112 h -18.08 l -21.12,-81.76 h -0.32 v 81.76 h -15.68 z"
         style="font-style:normal;font-variant:normal;font-weight:bold;font-stretch:normal;font-size:160px;font-family:'Bebas Neue';-inkscape-font-specification:'Bebas Neue Bold';fill:#ffffff;fill-opacity:1;stroke-width:1.11193478"
         id="path936" />
      <path
         d="m 401.53912,-1589.2737 h 23.84 l 18.24,112 h -17.6 l -3.2,-22.24 v 0.32 h -20 l -3.2,21.92 h -16.32 z m 19.2,74.88 -7.84,-55.36 h -0.32 l -7.68,55.36 z"
         style="font-style:normal;font-variant:normal;font-weight:bold;font-stretch:normal;font-size:160px;font-family:'Bebas Neue';-inkscape-font-specification:'Bebas Neue Bold';fill:#ffffff;fill-opacity:1;stroke-width:1.11193478"
         id="path938" />
      <path
         d="m 442.97869,-1589.2737 h 17.76 l 11.52,86.88 h 0.32 l 11.52,-86.88 h 16.16 l -16.96,112 h -23.36 z"
         style="font-style:normal;font-variant:normal;font-weight:bold;font-stretch:normal;font-size:160px;font-family:'Bebas Neue';-inkscape-font-specification:'Bebas Neue Bold';fill:#ffffff;fill-opacity:1;stroke-width:1.11193478"
         id="path940" />
      <path
         d="m 534.33866,-1589.2737 h 17.6 v 47.2 l 22.4,-47.2 h 17.6 l -20.96,41.12 21.28,70.88 h -18.4 l -14.88,-49.92 -7.04,14.24 v 35.68 h -17.6 z"
         style="font-style:normal;font-variant:normal;font-weight:bold;font-stretch:normal;font-size:160px;font-family:'Bebas Neue';-inkscape-font-specification:'Bebas Neue Bold';fill:#ffffff;fill-opacity:1;stroke-width:1.11193478"
         id="path942" />
      <path
         d="m 614.17859,-1589.2737 h 23.84 l 18.24,112 h -17.6 l -3.2,-22.24 v 0.32 h -20 l -3.2,21.92 h -16.32 z m 19.2,74.88 -7.84,-55.36 h -0.32 l -7.68,55.36 z"
         style="font-style:normal;font-variant:normal;font-weight:bold;font-stretch:normal;font-size:160px;font-family:'Bebas Neue';-inkscape-font-specification:'Bebas Neue Bold';fill:#ffffff;fill-opacity:1;stroke-width:1.11193478"
         id="path944" />
      <path
         d="m 664.73844,-1589.2737 h 25.92 q 13.12,0 19.68,7.04 6.56,7.04 6.56,20.64 v 11.04 q 0,13.6 -6.56,20.64 -6.56,7.04 -19.68,7.04 h -8.32 v 45.6 h -17.6 z m 25.92,50.4 q 4.32,0 6.4,-2.4 2.24,-2.4 2.24,-8.16 v -13.28 q 0,-5.76 -2.24,-8.16 -2.08,-2.4 -6.4,-2.4 h -8.32 v 34.4 z"
         style="font-style:normal;font-variant:normal;font-weight:bold;font-stretch:normal;font-size:160px;font-family:'Bebas Neue';-inkscape-font-specification:'Bebas Neue Bold';fill:#ffffff;fill-opacity:1;stroke-width:1.11193478"
         id="path946" />
      <path
         d="m 726.49839,-1589.2737 h 17.6 v 112 h -17.6 z"
         style="font-style:normal;font-variant:normal;font-weight:bold;font-stretch:normal;font-size:160px;font-family:'Bebas Neue';-inkscape-font-specification:'Bebas Neue Bold';fill:#ffffff;fill-opacity:1;stroke-width:1.11193478"
         id="path948" />
      <path
         d="m 780.09829,-1475.6737 q -12.8,0 -19.36,-7.2 -6.56,-7.36 -6.56,-20.96 v -6.4 h 16.64 v 7.68 q 0,10.88 9.12,10.88 4.48,0 6.72,-2.56 2.4,-2.72 2.4,-8.64 0,-7.04 -3.2,-12.32 -3.2,-5.44 -11.84,-12.96 -10.88,-9.6 -15.2,-17.28 -4.32,-7.84 -4.32,-17.6 0,-13.28 6.72,-20.48 6.72,-7.36 19.52,-7.36 12.64,0 19.04,7.36 6.56,7.2 6.56,20.8 v 4.64 h -16.64 v -5.76 q 0,-5.76 -2.24,-8.32 -2.24,-2.72 -6.56,-2.72 -8.8,0 -8.8,10.72 0,6.08 3.2,11.36 3.36,5.28 12,12.8 11.04,9.6 15.2,17.44 4.16,7.84 4.16,18.4 0,13.76 -6.88,21.12 -6.72,7.36 -19.68,7.36 z"
         style="font-style:normal;font-variant:normal;font-weight:bold;font-stretch:normal;font-size:160px;font-family:'Bebas Neue';-inkscape-font-specification:'Bebas Neue Bold';fill:#ffffff;fill-opacity:1;stroke-width:1.11193478"
         id="path950" />
      <path
         d="m 816.73825,-1589.2737 h 17.6 v 112 h -17.6 z"
         style="font-style:normal;font-variant:normal;font-weight:bold;font-stretch:normal;font-size:160px;font-family:'Bebas Neue';-inkscape-font-specification:'Bebas Neue Bold';fill:#ffffff;fill-opacity:1;stroke-width:1.11193478"
         id="path952" />
    </g>
    <text
       xml:space="preserve"
       style="font-style:normal;font-weight:normal;font-size:40px;line-height:1.25;font-family:sans-serif;letter-spacing:0px;word-spacing:0px;fill:#000000;fill-opacity:1;stroke:none"
       x="767.99475"
       y="-1464.2599"
       id="text766"><tspan
         sodipodi:role="line"
         id="tspan764"
         x="767.99475"
         y="-1428.2297" /></text>
    <rect
       style="fill:#ff3e00;fill-opacity:1;stroke:none;stroke-width:20;stroke-linecap:round;stroke-miterlimit:4;stroke-dasharray:none;stroke-opacity:1;paint-order:markers stroke fill"
       id="rect1294"
       width="0.43942577"
       height="7.4702382"
       x="-30.320377"
       y="-2018.2864" />
    <path
       inkscape:connector-curvature="0"
       style="display:inline;opacity:1;fill:#aad400;fill-opacity:1;stroke:none;stroke-width:1.34433496;stroke-linecap:round;stroke-miterlimit:4;stroke-dasharray:none;stroke-opacity:1"
       d="m 191.09635,-1639.6551 -90.42188,18.084 v 198.9316 l 90.42188,-18.0839 z m -69.00196,120.8145 v 10.8769 l 20.82618,-4.166 v 4.4395 l -18.28125,8.8418 -2.54493,0.5175 v 8.8672 l -13.35351,2.6699 v -29.3769 z m -3.6875,21.2617 -1.66992,0.3398 -3.2207,0.6895 v 5.6465 l 4.89062,-1.0489 z"
       id="rect848-9-7-6" />
    <path
       style="display:inline;opacity:1;fill:#ffffff;fill-opacity:1;stroke:none;stroke-width:3.45211196;stroke-linecap:round;stroke-miterlimit:4;stroke-dasharray:none;stroke-opacity:1"
       d="m 37.096471,-1639.31 v 197.6894 h 48.22266 v -20.5937 h -25.61719 v -156.5039 h 25.61719 v -10.8106 l 48.906249,-9.7812 z"
       id="path1509"
       inkscape:connector-curvature="0" />
  </g>
</svg>
