<?xml version="1.0" encoding="UTF-8" standalone="no"?>
<svg
   xmlns:dc="http://purl.org/dc/elements/1.1/"
   xmlns:cc="http://creativecommons.org/ns#"
   xmlns:rdf="http://www.w3.org/1999/02/22-rdf-syntax-ns#"
   xmlns:svg="http://www.w3.org/2000/svg"
   xmlns="http://www.w3.org/2000/svg"
   xmlns:sodipodi="http://sodipodi.sourceforge.net/DTD/sodipodi-0.dtd"
   xmlns:inkscape="http://www.inkscape.org/namespaces/inkscape"
   viewBox="0 0 500 500"
   version="1.1"
   id="svg2300"
   sodipodi:docname="happy.svg"
   inkscape:version="0.92.5 (2060ec1f9f, 2020-04-08)">
  <metadata
     id="metadata2304">
    <rdf:RDF>
      <cc:Work
         rdf:about="">
        <dc:format>image/svg+xml</dc:format>
        <dc:type
           rdf:resource="http://purl.org/dc/dcmitype/StillImage" />
      </cc:Work>
    </rdf:RDF>
  </metadata>
  <sodipodi:namedview
     pagecolor="#ffffff"
     bordercolor="#666666"
     borderopacity="1"
     objecttolerance="10"
     gridtolerance="10"
     guidetolerance="10"
     inkscape:pageopacity="0"
     inkscape:pageshadow="2"
     inkscape:window-width="1920"
     inkscape:window-height="1007"
     id="namedview2302"
     showgrid="false"
     inkscape:zoom="1.614"
     inkscape:cx="250"
     inkscape:cy="250"
     inkscape:window-x="0"
     inkscape:window-y="0"
     inkscape:window-maximized="1"
     inkscape:current-layer="svg2300" />
  <defs
     id="defs1954">
    <clipPath
       id="freepik--clip-path--inject-42">
      <path
         d="M285.55,279.66s-2.89,7.56-5.11,12-6,23.36-6.9,32.7-2.22,21.13-2.22,21.13-5.12,9.34-7.56,12.9-6,5.56-4,8,6.9-.89,10.46-2.89,4-5.56,6-6.45,6.23-.23,5.56-6-3.78-8.67-3.11-10.23S284,323.92,286,319.92s6.45-8.68,8.23-14.9a51.85,51.85,0,0,0,1.56-13.57s4.22-8.45,4.89-8.9S288,281.44,285.55,279.66Z"
         style="fill:#fff;stroke:#263238;stroke-linecap:round;stroke-linejoin:round"
         id="path1918" />
    </clipPath>
    <clipPath
       id="freepik--clip-path-2--inject-42">
      <path
         d="M342.94,280.77l5.12,7.79s2.22,10.23,5.56,16.9,11.57,18,15.57,22.91,5.34,14.46,5.34,14.46-2,4.23-.67,7.34,5.12,5.34,5.79,8.23,4.67,9.79,7.78,9.34,5.12-4.44,2.67-10.23-7.12-10.23-8.45-16.24-5.56-30.92-9.12-38.7a90.82,90.82,0,0,0-7.12-12.9l-3.34-13.35S349.62,283,342.94,280.77Z"
         style="fill:#fff;stroke:#263238;stroke-linecap:round;stroke-linejoin:round"
         id="path1921" />
    </clipPath>
    <clipPath
       id="freepik--clip-path-3--inject-42">
      <path
         d="M351.62,210.93s.44.44-1.56,1.77-6.89,2.45-5.78,4.23,2.22,2.67,1.33,3.34-2.22.67-3.33,1.55-4.45-9.78-4.45-9.78S346.06,208,351.62,210.93Z"
         style="fill:#fff;stroke:#263238;stroke-linecap:round;stroke-linejoin:round"
         id="path1924" />
    </clipPath>
    <clipPath
       id="freepik--clip-path-4--inject-42">
      <path
         d="M342.16,215.64l-1.44-4.94-40,7.57-.36,2.06a46,46,0,0,0,20.16,1.27A102.71,102.71,0,0,0,342.16,215.64Z"
         style="fill:#fff;stroke:#263238;stroke-linecap:round;stroke-linejoin:round"
         id="path1927" />
    </clipPath>
    <clipPath
       id="freepik--clip-path-5--inject-42">
      <path
         d="M364.14,130.18a137.42,137.42,0,0,0-8.66-23.06c-2.71-5.77-5.4-13-9.58-17.87-2.67-3.11-7.57-5.56-8.68-5.11s-6,2.44-6,5.11S333,91.92,333,91.92s-.45,3.34.89,4.67,8.23.89,8.23.89a29.16,29.16,0,0,1,3.05,5.79c1.33,4.44,2.51,5.33,3.4,13.34a160.58,160.58,0,0,0,3.78,18.91,8.38,8.38,0,0,0-2.23,2c-1.33,1.56-9.78,10-9.78,10a51.93,51.93,0,0,1-7.57,2.89,37.38,37.38,0,0,0-6.58,2.76c-1.37-.16-2.75-.31-3.49-.31-1.56,0-12.45,2-12.45,2a37.25,37.25,0,0,0-8-3.56,51.93,51.93,0,0,1-7.57-2.89s-8.45-8.45-9.78-10a8.38,8.38,0,0,0-2.23-2,160.58,160.58,0,0,0,3.78-18.91c.72-6.46,2.58-13.8,6.46-19.13,0,0,6.89.45,8.23-.89s.88-4.67.88-4.67,1.78,0,1.78-2.67-4.89-4.67-6-5.11-6,2-8.68,5.11-2.44,6.23-5.11,10.68-12,26-13.13,30.25-2.44,6.67-2.22,8.68,10.9,13.56,13.57,16.68,12.9,13.79,12.9,13.79,3.78,18.68,4.89,25.36.45,25.13.45,25.13,12.23-2.67,23.8-4,24.24-5.78,25.8-5.78h1.56s-8.68-10.68-8.68-12.24c0-1.24.29-23.9.4-33,3.23-3.4,7.8-8.24,9.45-10.17,2.67-3.12,13.35-14.68,13.57-16.68S365.25,134.41,364.14,130.18Z"
         style="fill:#fff;stroke:#263238;stroke-linecap:round;stroke-linejoin:round"
         id="path1930" />
    </clipPath>
    <clipPath
       id="freepik--clip-path-6--inject-42">
      <path
         d="M326.75,142.3s1.21-3.43,2.83-1.81.8,5-.21,6.46-1.81.61-2.42-1A7.66,7.66,0,0,1,326.75,142.3Z"
         style="fill:#fff;stroke:#263238;stroke-linecap:round;stroke-linejoin:round"
         id="path1933" />
    </clipPath>
    <clipPath
       id="freepik--clip-path-7--inject-42">
      <path
         d="M306.65,144.3s-2.09-3-3.21-1,.58,5.09,1.94,6.17,1.91.1,2.06-1.62A7.68,7.68,0,0,0,306.65,144.3Z"
         style="fill:#fff;stroke:#263238;stroke-linecap:round;stroke-linejoin:round"
         id="path1936" />
    </clipPath>
    <clipPath
       id="freepik--clip-path-8--inject-42">
      <path
         d="M312,155.85s5.26,13.74,8.09,12.73,3.64-13.14,3.64-13.14S315,157.26,312,155.85Z"
         style="fill:#fff;stroke:#263238;stroke-linecap:round;stroke-linejoin:round"
         id="path1939" />
    </clipPath>
    <clipPath
       id="freepik--clip-path-9--inject-42">
      <path
         d="M305.12,138.87s1,8.89,2.23,12.93,5.9,7.71,12.16,6.7S328,148.37,328,147.76s-.4-11.52-2.83-15.56-7.07-7.88-13.54-4.85S304.52,136.65,305.12,138.87Z"
         style="fill:#fff;stroke:#263238;stroke-linecap:round;stroke-linejoin:round"
         id="path1942" />
    </clipPath>
    <clipPath
       id="freepik--clip-path-10--inject-42">
      <path
         d="M171.34,183.24s-1.63,8-1.63,12.32,4.35,13.59,5.8,17.76,3.26,23.56,3.26,24.11c0,.15.07,1.22.18,2.68,6.41,1.79,19.63,2.4,35.39-14.12-2.86-2.91-6-5.62-8.57-8.77-1.82-2.21-3.21-3.85-3.08-4.8.21-1.47,1.93-8.87,3.49-15.17l4.86-9.32c1.2-1.25,6.56-8,7.06-8.86,2.9-4.9,17.22-19.4,18.67-20.67s4.71-8.51,7.25-19.39c.93-4,2-8.69,3.07-13a23.16,23.16,0,0,1-5.88-2.08c-1.75,3.42-3.47,6.84-4.44,8.92-2.54,5.44-9.25,18.49-9.25,18.49l-16.85,17.58s-2.54,1.27-6.89,3.8c-.41.24-.84.51-1.27.78l-8,1.76L187.65,174a115.18,115.18,0,0,0-10.15-7.07c-4.35-2.53-6.89-3.8-6.89-3.8l-16.85-17.58s-6.71-13-9.25-18.49c-1.17-2.5-3.41-6.93-5.49-11a54.57,54.57,0,0,1-5.36,1.93c1.17,4.86,2.5,10.49,3.6,15.2,2.54,10.88,5.8,18.13,7.25,19.4s15.77,15.76,18.67,20.66A58.12,58.12,0,0,0,171.34,183.24Z"
         style="fill:#DB5C00;stroke:#263238;stroke-linecap:round;stroke-linejoin:round"
         id="path1945" />
    </clipPath>
    <clipPath
       id="freepik--clip-path-11--inject-42">
      <path
         d="M185.84,159.85s.18,11.42-.73,14.14-6,8-3.8,12.33,10.15-.55,13-5.8,1.46-6.89,1.46-6.89v-8Z"
         style="fill:#fff;stroke:#263238;stroke-linecap:round;stroke-linejoin:round"
         id="path1948" />
    </clipPath>
    <clipPath
       id="freepik--clip-path-12--inject-42">
      <path
         d="M183.84,152.24s-3.44-3.26-4.35-.9,1.45,5.8,2.72,6.16l1.27.36a14.58,14.58,0,0,0,3.63,6.89c2.9,2.9,6.16,4.35,9.78,2.54s6.53-6.35,7.43-11.78a30.6,30.6,0,0,0,.55-8.16c0-.91-1.63-7.43-6.35-9.06s-4.17.36-7.79,4.53A86.46,86.46,0,0,0,183.84,152.24Z"
         style="fill:#fff;stroke:#263238;stroke-linecap:round;stroke-linejoin:round"
         id="path1951" />
    </clipPath>
  </defs>
  <g
     id="freepik--background-simple--inject-42"
     style="fill:#cbd4c2;fill-opacity:1">
    <path
       d="M346.51,82S288.87,46.26,224.4,70.34,120.2,160.76,86.63,213.52,60,328.59,101.94,365.12s78.12,3.24,142.2,14.69,79.94,24.76,138-2.51S461.85,261.4,429,185.56,346.51,82,346.51,82Z"
       style="fill:#cbd4c2;fill-opacity:1"
       id="path1956" />
    <path
       d="M346.51,82S288.87,46.26,224.4,70.34,120.2,160.76,86.63,213.52,60,328.59,101.94,365.12s78.12,3.24,142.2,14.69,79.94,24.76,138-2.51S461.85,261.4,429,185.56,346.51,82,346.51,82Z"
       style="fill:#cbd4c2;opacity:0.7;fill-opacity:1"
       id="path1958" />
  </g>
  <g
     id="freepik--Clouds--inject-42"
     style="fill:#faffd8;fill-opacity:1">
    <path
       d="M311.7,129c-1-5.35-3.15-13.56-7.11-16.34-6-4.23-12.1,4.84-19.36,6s4.23-22.38-8.47-26.62-16.34,11.5-20.58,18.76-10.28-3-15.73-1.21-2.42,11.49-7.86,12.7-14.52-6.05-18.76-1.81c-4,4-4.23,4.78-10,8.47Z"
       style="fill:#faffd8;fill-opacity:1"
       id="path1961" />
    <path
       d="M146.1,271.55c-.66-3.5-2.06-8.88-4.66-10.7-4-2.77-7.92,3.17-12.68,4s2.77-14.67-5.55-17.44-10.7,7.53-13.47,12.28-6.74-2-10.31-.79-1.58,7.53-5.15,8.32-9.51-4-12.29-1.18c-2.63,2.63-2.77,3.12-6.51,5.54Z"
       style="fill:#faffd8;fill-opacity:1"
       id="path1963" />
    <path
       d="M436.69,240.12c-2-10.78-6.37-27.36-14.35-33-12.21-8.54-24.41,9.76-39,12.2s8.54-45.14-17.08-53.68-32.95,23.18-41.49,37.82S304,197.41,293,201.07s-4.88,23.19-15.86,25.63S247.84,214.49,239.3,223c-8.11,8.11-8.54,9.63-20.06,17.08Z"
       style="fill:#faffd8;fill-opacity:1"
       id="path1965" />
    <path
       d="M311.7,129c-1-5.35-3.15-13.56-7.11-16.34-6-4.23-12.1,4.84-19.36,6s4.23-22.38-8.47-26.62-16.34,11.5-20.58,18.76-10.28-3-15.73-1.21-2.42,11.49-7.86,12.7-14.52-6.05-18.76-1.81c-4,4-4.23,4.78-10,8.47Z"
       style="fill:#faffd8;opacity:0.4;fill-opacity:1"
       id="path1967" />
    <path
       d="M146.1,271.55c-.66-3.5-2.06-8.88-4.66-10.7-4-2.77-7.92,3.17-12.68,4s2.77-14.67-5.55-17.44-10.7,7.53-13.47,12.28-6.74-2-10.31-.79-1.58,7.53-5.15,8.32-9.51-4-12.29-1.18c-2.63,2.63-2.77,3.12-6.51,5.54Z"
       style="fill:#faffd8;opacity:0.4;fill-opacity:1"
       id="path1969" />
    <path
       d="M436.69,240.12c-2-10.78-6.37-27.36-14.35-33-12.21-8.54-24.41,9.76-39,12.2s8.54-45.14-17.08-53.68-32.95,23.18-41.49,37.82S304,197.41,293,201.07s-4.88,23.19-15.86,25.63S247.84,214.49,239.3,223c-8.11,8.11-8.54,9.63-20.06,17.08Z"
       style="fill:#faffd8;opacity:0.4;fill-opacity:1"
       id="path1971" />
  </g>
  <path
     inkscape:connector-curvature="0"
     id="path1974"
     style="fill:#db5c00"
     d="m 370.49,392.55 c 0,0 13.6,1.35 20.5,9.78 a 26.31,26.31 0 0 1 20.37,-9.57 26.44,26.44 0 1 0 -40.87,-0.18 z" />
  <path
     inkscape:connector-curvature="0"
     id="path1976"
     style="opacity:0.58;fill:#f4d35e;fill-opacity:1"
     d="m 370.49,392.55 c 0,0 13.6,1.35 20.5,9.78 a 26.31,26.31 0 0 1 20.37,-9.57 26.44,26.44 0 1 0 -40.87,-0.18 z" />
  <polygon
     id="polygon1978"
     style="fill:#263238"
     points="392.38,419.51 390.54,351.31 390.08,419.51 " />
  <path
     inkscape:connector-curvature="0"
     id="path1980"
     style="fill:#263238"
     d="m 391.23,399.76 c 0,0 4.59,-8.26 12.86,-10.79 0,0 -8.73,2.07 -13.09,9.18 z" />
  <path
     inkscape:connector-curvature="0"
     id="path1982"
     style="fill:#263238"
     d="m 391.23,376.34 c 0,0 4.59,-8.26 12.86,-10.79 0,0 -8.73,2.07 -13.09,9.18 z" />
  <path
     inkscape:connector-curvature="0"
     id="path1984"
     style="fill:#263238"
     d="m 391.23,388.05 c 0,0 4.59,-8.26 12.86,-10.79 0,0 -8.73,2.07 -13.09,9.18 z" />
  <path
     inkscape:connector-curvature="0"
     id="path1986"
     style="fill:#263238"
     d="m 390.55,382.31 c 0,0 -4.43,-8.26 -12.41,-10.79 0,0 8.42,2.07 12.63,9.18 z" />
  <path
     inkscape:connector-curvature="0"
     id="path1988"
     style="fill:#263238"
     d="m 390.55,393.79 c 0,0 -4.43,-8.26 -12.41,-10.79 0,0 8.42,2.07 12.63,9.18 z" />
  <path
     inkscape:connector-curvature="0"
     id="path1990"
     style="fill:#db5c00"
     d="m 319.94,376.92 c 0,0 18.21,1.81 27.45,13.1 0,0 9.75,-13.08 27.27,-12.82 a 35.41,35.41 0 1 0 -54.73,-0.25 z" />
  <path
     inkscape:connector-curvature="0"
     id="path1992"
     style="opacity:1;fill:#f4d35e;fill-opacity:1"
     d="m 319.94,376.92 c 0,0 18.21,1.81 27.45,13.1 0,0 9.75,-13.08 27.27,-12.82 a 35.41,35.41 0 1 0 -54.73,-0.25 z" />
  <polygon
     id="polygon1994"
     style="fill:#263238"
     points="349.24,413.02 346.78,321.7 346.17,413.02 " />
  <path
     inkscape:connector-curvature="0"
     id="path1996"
     style="fill:#263238"
     d="m 347.71,386.58 c 0,0 6.15,-11.07 17.22,-14.45 0,0 -11.69,2.76 -17.53,12.29 z" />
  <path
     inkscape:connector-curvature="0"
     id="path1998"
     style="fill:#263238"
     d="m 347.71,355.21 c 0,0 6.15,-11.07 17.22,-14.45 0,0 -11.69,2.77 -17.53,12.3 z" />
  <path
     inkscape:connector-curvature="0"
     id="path2000"
     style="fill:#263238"
     d="m 347.71,370.9 c 0,0 6.15,-11.07 17.22,-14.46 0,0 -11.69,2.77 -17.53,12.3 z" />
  <path
     inkscape:connector-curvature="0"
     id="path2002"
     style="fill:#263238"
     d="m 346.8,363.21 c 0,0 -5.94,-11.07 -16.62,-14.45 0,0 11.27,2.76 16.91,12.3 z" />
  <path
     inkscape:connector-curvature="0"
     id="path2004"
     style="fill:#263238"
     d="m 346.8,378.58 c 0,0 -5.94,-11.07 -16.62,-14.45 0,0 11.27,2.77 16.91,12.3 z" />
  <path
     inkscape:connector-curvature="0"
     id="path2006"
     style="fill:#db5c00"
     d="m 160.91,376.44 c 0,0 18.65,1.84 28.1,13.4 0,0 10,-13.39 27.92,-13.11 a 36.25,36.25 0 1 0 -56,-0.26 z" />
  <path
     inkscape:connector-curvature="0"
     id="path2008"
     style="opacity:1;fill:#f4d35e;fill-opacity:1"
     d="m 160.91,376.44 c 0,0 18.65,1.84 28.1,13.4 0,0 10,-13.39 27.92,-13.11 a 36.25,36.25 0 1 0 -56,-0.26 z" />
  <polygon
     id="polygon2010"
     style="fill:#263238"
     points="190.91,413.39 188.39,319.91 187.76,413.39 " />
  <path
     inkscape:connector-curvature="0"
     id="path2012"
     style="fill:#263238"
     d="m 189.34,386.32 c 0,0 6.29,-11.32 17.66,-14.79 0,0 -12,2.83 -17.94,12.59 z" />
  <path
     inkscape:connector-curvature="0"
     id="path2014"
     style="fill:#263238"
     d="m 189.34,354.22 c 0,0 6.29,-11.33 17.62,-14.79 0,0 -12,2.83 -17.94,12.58 z" />
  <path
     inkscape:connector-curvature="0"
     id="path2016"
     style="fill:#263238"
     d="m 189.34,370.27 c 0,0 6.29,-11.33 17.62,-14.79 0,0 -12,2.83 -17.94,12.59 z" />
  <path
     inkscape:connector-curvature="0"
     id="path2018"
     style="fill:#263238"
     d="m 188.4,362.4 c 0,0 -6.07,-11.33 -17,-14.79 0,0 11.54,2.83 17.31,12.59 z" />
  <path
     inkscape:connector-curvature="0"
     id="path2020"
     style="fill:#263238"
     d="m 188.4,378.14 c 0,0 -6.07,-11.33 -17,-14.8 0,0 11.54,2.84 17.31,12.59 z" />
  <path
     inkscape:connector-curvature="0"
     id="path2022"
     style="fill:#db5c00"
     d="m 97.68,394.78 c 0,0 14.47,1.43 21.81,10.4 0,0 7.75,-10.39 21.66,-10.18 a 28.13,28.13 0 1 0 -43.47,-0.2 z" />
  <path
     inkscape:connector-curvature="0"
     id="path2024"
     style="opacity:0.99999999;fill:#f4d35e;fill-opacity:1"
     d="m 97.68,394.78 c 0,0 14.47,1.43 21.81,10.4 0,0 7.75,-10.39 21.66,-10.18 a 28.13,28.13 0 1 0 -43.47,-0.2 z" />
  <polygon
     id="polygon2026"
     style="fill:#263238"
     points="120.96,423.45 119.01,350.91 118.52,423.45 " />
  <path
     inkscape:connector-curvature="0"
     id="path2028"
     style="fill:#263238"
     d="m 119.74,402.44 c 0,0 4.89,-8.79 13.68,-11.48 0,0 -9.28,2.2 -13.92,9.77 z" />
  <path
     inkscape:connector-curvature="0"
     id="path2030"
     style="fill:#263238"
     d="m 119.74,377.53 c 0,0 4.89,-8.79 13.68,-11.48 0,0 -9.28,2.2 -13.92,9.77 z" />
  <path
     inkscape:connector-curvature="0"
     id="path2032"
     style="fill:#263238"
     d="m 119.74,390 c 0,0 4.89,-8.8 13.68,-11.48 0,0 -9.28,2.2 -13.92,9.77 z" />
  <path
     inkscape:connector-curvature="0"
     id="path2034"
     style="fill:#263238"
     d="m 119,383.88 c 0,0 -4.72,-8.79 -13.2,-11.48 0,0 9,2.2 13.43,9.77 z" />
  <path
     inkscape:connector-curvature="0"
     id="path2036"
     style="fill:#263238"
     d="m 119,396.09 c 0,0 -4.72,-8.79 -13.2,-11.48 0,0 9,2.2 13.43,9.77 z" />
  <g
     id="freepik--Floor--inject-42"
     style="fill:#598b2c;fill-opacity:1">
    <path
       d="M426,415.29l-5.68-1q-.72-.39-1.53-.75l4.52-4.52-13.43.9-1.35-2.24-3.58.89-1.79-4.48-4.93,1.8-1.34-6.27-4.48,2.24-4.48-3.59L386.57,401l-3.58-.9-1.23,1.84-1.14-.29L379,398.27l-5.5,1.62-3-.67-.93-1.4h-5.77l-1-.19-.43-3.84-7.16.45-3.58-4-3.14,3.58L346.71,392l-2.24.9-3.14-4s-2.68,4-4.47,4.48-4.93-3.14-4.93-3.14l-1.83,2.44-2-.22-1.52-1.77L323.91,392l-1.08-.1-.75-3-5.38,1.79-3.58-3.14-2.1,3.36-1.46-.1-2.26-.57-4.93-1.34-1.79.89-5.82-4.92v5.09l-.53,0-5.74-3.28-.76,3-1.58,0-1.25-3-5.32,2.82-2.5,0-.24-1.44-9,.9-3.13-5.38-2.69,4.93-3.13-4.48-2.74,5.47-3,0-1.9-1.48-.44,1.53-2.51.07L245,387.08l-.45,2.23L241,388l-3.52,2-.68,0-1.62-2.43-5.38,1.79-1.57,1.05-2.79.15-.56-2.54-6.24,3-3.09.2c-1.05-1.06-2.89-2.71-4.11-2.71a3.32,3.32,0,0,0-2.69,1.79L207,388.87l-2.05,3.07-1.34.12-1.53-1.85-4.48,2.24-1.79-4-4.93,4-.9-3.14L185,392.45l-3.14-3.58-3.22,5.63-1,.11-3-2.61-2.6,3.25-1.78.22-2.34-3-.9,2.24-4-2.24-2.24,4-4.48-1.79L151.25,398l-6.11.87-2.66-1.91-2.24,1.34-3.14-1.34-.89,2.69-3.14-.9-2.36,2.36-.43.07L129,398.27,124.56,401l-2.68-3.58-3.59,4.48-5.82.44-5.37.45-4,1.79-3.89,2.21-2.83-.42L93.82,408l-.27.07-3-.86-2.24,1.34-4-.44-.62,3.07c-1,.36-1.92.73-2.86,1.12-.89-.09-1.8-.16-2.35-.16s-1.28,1-2,2.17c-6.53,3.38-10.53,7.61-5.37,12.15,6.78,6,24,3.36,31.94,2.83,34-2.26,59.67-9.39,72.87-8.23s-39.21,28.63,17.47,28.64,173-6.56,190-8.16-16.87-7.84-12-15.32,44.41-1.14,51.06-2.92c4.41-1.18,3-4.13,1.58-6Z"
       style="fill:#598b2c;fill-opacity:1"
       id="path2039" />
    <path
       d="M426,415.29l-5.68-1q-.72-.39-1.53-.75l4.52-4.52-13.43.9-1.35-2.24-3.58.89-1.79-4.48-4.93,1.8-1.34-6.27-4.48,2.24-4.48-3.59L386.57,401l-3.58-.9-1.23,1.84-1.14-.29L379,398.27l-5.5,1.62-3-.67-.93-1.4h-5.77l-1-.19-.43-3.84-7.16.45-3.58-4-3.14,3.58L346.71,392l-2.24.9-3.14-4s-2.68,4-4.47,4.48-4.93-3.14-4.93-3.14l-1.83,2.44-2-.22-1.52-1.77L323.91,392l-1.08-.1-.75-3-5.38,1.79-3.58-3.14-2.1,3.36-1.46-.1-2.26-.57-4.93-1.34-1.79.89-5.82-4.92v5.09l-.53,0-5.74-3.28-.76,3-1.58,0-1.25-3-5.32,2.82-2.5,0-.24-1.44-9,.9-3.13-5.38-2.69,4.93-3.13-4.48-2.74,5.47-3,0-1.9-1.48-.44,1.53-2.51.07L245,387.08l-.45,2.23L241,388l-3.52,2-.68,0-1.62-2.43-5.38,1.79-1.57,1.05-2.79.15-.56-2.54-6.24,3-3.09.2c-1.05-1.06-2.89-2.71-4.11-2.71a3.32,3.32,0,0,0-2.69,1.79L207,388.87l-2.05,3.07-1.34.12-1.53-1.85-4.48,2.24-1.79-4-4.93,4-.9-3.14L185,392.45l-3.14-3.58-3.22,5.63-1,.11-3-2.61-2.6,3.25-1.78.22-2.34-3-.9,2.24-4-2.24-2.24,4-4.48-1.79L151.25,398l-6.11.87-2.66-1.91-2.24,1.34-3.14-1.34-.89,2.69-3.14-.9-2.36,2.36-.43.07L129,398.27,124.56,401l-2.68-3.58-3.59,4.48-5.82.44-5.37.45-4,1.79-3.89,2.21-2.83-.42L93.82,408l-.27.07-3-.86-2.24,1.34-4-.44-.62,3.07c-1,.36-1.92.73-2.86,1.12-.89-.09-1.8-.16-2.35-.16s-1.28,1-2,2.17c-6.53,3.38-10.53,7.61-5.37,12.15,6.78,6,24,3.36,31.94,2.83,34-2.26,59.67-9.39,72.87-8.23s-39.21,28.63,17.47,28.64,173-6.56,190-8.16-16.87-7.84-12-15.32,44.41-1.14,51.06-2.92c4.41-1.18,3-4.13,1.58-6Z"
       style="fill:#598b2c;opacity:0.4;fill-opacity:1"
       id="path2041" />
  </g>
  <g
     id="freepik--character-2--inject-42">
    <path
       d="M285.55,279.66s-2.89,7.56-5.11,12-6,23.36-6.9,32.7-2.22,21.13-2.22,21.13-5.12,9.34-7.56,12.9-6,5.56-4,8,6.9-.89,10.46-2.89,4-5.56,6-6.45,6.23-.23,5.56-6-3.78-8.67-3.11-10.23S284,323.92,286,319.92s6.45-8.68,8.23-14.9a51.85,51.85,0,0,0,1.56-13.57s4.22-8.45,4.89-8.9S288,281.44,285.55,279.66Z"
       style="fill:#fff"
       id="path2044" />
    <g
       style="clip-path:url(#freepik--clip-path--inject-42)"
       clip-path="url(#freepik--clip-path--inject-42)"
       id="g2050">
      <path
         d="M285.55,279.66s-2.89,7.56-5.11,12-6,23.36-6.9,32.7-2.22,21.13-2.22,21.13-5.12,9.34-7.56,12.9-6,5.56-4,8,6.9-.89,10.46-2.89,4-5.56,6-6.45,6.23-.23,5.56-6-3.78-8.67-3.11-10.23S284,323.92,286,319.92s6.45-8.68,8.23-14.9a51.85,51.85,0,0,0,1.56-13.57s4.22-8.45,4.89-8.9S288,281.44,285.55,279.66Z"
         style="fill:#d9d9d9;stroke:#263238;stroke-linecap:round;stroke-linejoin:round"
         id="path2046" />
      <path
         d="M282.36,287.49c1.94,1,5.66,2.84,7.94,2.84h3.19s2.48,5.67-1.77,15.24-11.7,20.9-13.47,28.34c-1,4.15-3.62,17.09-5.76,27.74,1.62-1.86,2.26-3.93,3.72-4.58,2-.89,6.23-.23,5.56-6s-3.78-8.67-3.11-10.23S284,323.92,286,319.92s6.45-8.68,8.23-14.9a51.85,51.85,0,0,0,1.56-13.57s4.22-8.45,4.89-8.9-12.68-1.11-15.13-2.89C285.55,279.66,284,283.62,282.36,287.49Z"
         style="opacity:0.25"
         id="path2048" />
    </g>
    <path
       d="M285.55,279.66s-2.89,7.56-5.11,12-6,23.36-6.9,32.7-2.22,21.13-2.22,21.13-5.12,9.34-7.56,12.9-6,5.56-4,8,6.9-.89,10.46-2.89,4-5.56,6-6.45,6.23-.23,5.56-6-3.78-8.67-3.11-10.23S284,323.92,286,319.92s6.45-8.68,8.23-14.9a51.85,51.85,0,0,0,1.56-13.57s4.22-8.45,4.89-8.9S288,281.44,285.55,279.66Z"
       style="fill:none;stroke:#263238;stroke-linecap:round;stroke-linejoin:round"
       id="path2052" />
    <path
       d="M259.75,366.41c2,2.45,6.9-.89,10.46-2.89s4-5.56,6-6.45,6.23-.23,5.56-6c-.59-5.14-3.11-8-3.2-9.66a7.81,7.81,0,0,1-2.8,4.1c-2.89,2.45-4.45,0-4.45,0s-5.12,9.34-7.56,12.9S257.75,364,259.75,366.41Z"
       style="fill:#263238;stroke:#263238;stroke-linecap:round;stroke-linejoin:round"
       id="path2054" />
    <path
       d="M281.78,351.12a16.5,16.5,0,0,1-3.57,2.39c-3.78,1.78-4.67,5.11-10,9.34a10.79,10.79,0,0,1-9,2.52,2.57,2.57,0,0,0,.53,1c2,2.45,6.9-.89,10.46-2.89s4-5.56,6-6.45S282.4,356.83,281.78,351.12Z"
       style="fill:#fff;stroke:#263238;stroke-linecap:round;stroke-linejoin:round"
       id="path2056" />
    <path
       d="M342.94,280.77l5.12,7.79s2.22,10.23,5.56,16.9,11.57,18,15.57,22.91,5.34,14.46,5.34,14.46-2,4.23-.67,7.34,5.12,5.34,5.79,8.23,4.67,9.79,7.78,9.34,5.12-4.44,2.67-10.23-7.12-10.23-8.45-16.24-5.56-30.92-9.12-38.7a90.82,90.82,0,0,0-7.12-12.9l-3.34-13.35S349.62,283,342.94,280.77Z"
       style="fill:#fff"
       id="path2058" />
    <g
       style="clip-path:url(#freepik--clip-path-2--inject-42)"
       clip-path="url(#freepik--clip-path-2--inject-42)"
       id="g2064">
      <path
         d="M342.94,280.77l5.12,7.79s2.22,10.23,5.56,16.9,11.57,18,15.57,22.91,5.34,14.46,5.34,14.46-2,4.23-.67,7.34,5.12,5.34,5.79,8.23,4.67,9.79,7.78,9.34,5.12-4.44,2.67-10.23-7.12-10.23-8.45-16.24-5.56-30.92-9.12-38.7a90.82,90.82,0,0,0-7.12-12.9l-3.34-13.35S349.62,283,342.94,280.77Z"
         style="fill:#d9d9d9;stroke:#263238;stroke-linecap:round;stroke-linejoin:round"
         id="path2060" />
      <path
         d="M372.53,302.57a90.82,90.82,0,0,0-7.12-12.9l-3.34-13.35s-12.45,6.68-19.13,4.45l5.09,7.74c.87,0,1.83.05,2.86.05a22.34,22.34,0,0,0,8.15-1.77s8.5,13.46,12.75,24.8c2.95,7.87,6.76,19.82,9.28,26.88C379.34,329.72,375.67,309.45,372.53,302.57Z"
         style="opacity:0.25"
         id="path2062" />
    </g>
    <path
       d="M342.94,280.77l5.12,7.79s2.22,10.23,5.56,16.9,11.57,18,15.57,22.91,5.34,14.46,5.34,14.46-2,4.23-.67,7.34,5.12,5.34,5.79,8.23,4.67,9.79,7.78,9.34,5.12-4.44,2.67-10.23-7.12-10.23-8.45-16.24-5.56-30.92-9.12-38.7a90.82,90.82,0,0,0-7.12-12.9l-3.34-13.35S349.62,283,342.94,280.77Z"
       style="fill:none;stroke:#263238;stroke-linecap:round;stroke-linejoin:round"
       id="path2066" />
    <path
       d="M390.1,357.51c-2.11-5-5.87-9-7.72-13.83a6,6,0,0,1-1.62,2.49c-2.45,2-6.23-3.34-6.23-3.34s-2,4.23-.67,7.34,5.12,5.34,5.79,8.23,4.67,9.79,7.78,9.34S392.55,363.3,390.1,357.51Z"
       style="fill:#263238;stroke:#263238;stroke-linecap:round;stroke-linejoin:round"
       id="path2068" />
    <path
       d="M379.65,358.4a13.81,13.81,0,0,0,1.2,3,6.32,6.32,0,0,1-.31-.78c-1.12-3.56-1.78-8-4.23-10.24a12.56,12.56,0,0,1-2.79-4.14,7.32,7.32,0,0,0,.34,3.92C375.2,353.29,379,355.51,379.65,358.4Z"
       style="fill:#fff;stroke:#263238;stroke-linecap:round;stroke-linejoin:round"
       id="path2070" />
    <path
       d="M391,360.37c-.27,1.87-.82,4-2,5.15-2.07,2.07-5.89-.32-7.69-3.27,1.61,2.86,4.07,5.79,6.13,5.49C390,367.38,391.81,364.58,391,360.37Z"
       style="fill:#fff;stroke:#263238;stroke-linecap:round;stroke-linejoin:round"
       id="path2072" />
    <path
       d="M351.62,210.93s.44.44-1.56,1.77-6.89,2.45-5.78,4.23,2.22,2.67,1.33,3.34-2.22.67-3.33,1.55-4.45-9.78-4.45-9.78S346.06,208,351.62,210.93Z"
       style="fill:#fff"
       id="path2074" />
    <g
       style="clip-path:url(#freepik--clip-path-3--inject-42)"
       clip-path="url(#freepik--clip-path-3--inject-42)"
       id="g2080">
      <path
         d="M351.62,210.93s.44.44-1.56,1.77-6.89,2.45-5.78,4.23,2.22,2.67,1.33,3.34-2.22.67-3.33,1.55-4.45-9.78-4.45-9.78S346.06,208,351.62,210.93Z"
         style="fill:#DB5C00"
         id="path2076" />
      <path
         d="M351.62,210.93s.44.44-1.56,1.77-6.89,2.45-5.78,4.23,2.22,2.67,1.33,3.34-2.22.67-3.33,1.55-4.45-9.78-4.45-9.78S346.06,208,351.62,210.93Z"
         style="opacity:0.25"
         id="path2078" />
    </g>
    <path
       d="M351.62,210.93s.44.44-1.56,1.77-6.89,2.45-5.78,4.23,2.22,2.67,1.33,3.34-2.22.67-3.33,1.55-4.45-9.78-4.45-9.78S346.06,208,351.62,210.93Z"
       style="fill:none;stroke:#263238;stroke-linecap:round;stroke-linejoin:round"
       id="path2082" />
    <path
       d="M300.68,218.27l-2,11.56s-8.23,17.8-11.12,26.92-7.12,25.13-7.12,25.13,3.11,2.45,12.46,4S314,281.44,314,281.44s3.56-19.13,4.67-21.58,4.22-8.9,4.22-8.9h2.9l7.56,29.37s6.89,1.78,10.9,2.44,10,1.11,15.35-2.67a31.2,31.2,0,0,0,8.45-9.78s-8.45-20-12.24-28.25-12.45-22.25-12.45-22.25l-2.67-9.12Z"
       style="fill:#808080;stroke:#263238;stroke-linecap:round;stroke-linejoin:round;fill-opacity:1"
       id="path2084" />
    <line
       x1="301.13"
       y1="234.28"
       x2="310.47"
       y2="243.18"
       style="fill:none;stroke:#fff;stroke-linecap:round;stroke-linejoin:round"
       id="line2086" />
    <line
       x1="312.48"
       y1="246.05"
       x2="314.03"
       y2="247.18"
       style="fill:none;stroke:#fff;stroke-linecap:round;stroke-linejoin:round"
       id="line2088" />
    <line
       x1="301.35"
       y1="237.84"
       x2="310.71"
       y2="244.74"
       style="fill:none;stroke:#fff;stroke-linecap:round;stroke-linejoin:round"
       id="line2090" />
    <path
       d="M309.26,281a32.17,32.17,0,0,0,3.88-1.74"
       style="fill:none;stroke:#fff;stroke-linecap:round;stroke-linejoin:round"
       id="path2092" />
    <path
       d="M282.89,280.1A37.73,37.73,0,0,0,304,282.41"
       style="fill:none;stroke:#fff;stroke-linecap:round;stroke-linejoin:round"
       id="path2094" />
    <path
       d="M334.27,278.1s15.35,9.79,32-8.9"
       style="fill:none;stroke:#fff;stroke-linecap:round;stroke-linejoin:round"
       id="path2096" />
    <line
       x1="346.06"
       y1="227.83"
       x2="341.61"
       y2="236.28"
       style="fill:none;stroke:#fff;stroke-linecap:round;stroke-linejoin:round"
       id="line2098" />
    <path
       d="M309.8,224.94a43.55,43.55,0,0,0,24-4.45"
       style="fill:none;stroke:#fff;stroke-linecap:round;stroke-linejoin:round"
       id="path2100" />
    <path
       d="M342.16,215.64l-1.44-4.94-40,7.57-.36,2.06a46,46,0,0,0,20.16,1.27A102.71,102.71,0,0,0,342.16,215.64Z"
       style="fill:#fff"
       id="path2102" />
    <g
       style="clip-path:url(#freepik--clip-path-4--inject-42)"
       clip-path="url(#freepik--clip-path-4--inject-42)"
       id="g2106">
      <path
         d="M342.16,215.64l-1.44-4.94-40,7.57-.36,2.06a46,46,0,0,0,20.16,1.27A102.71,102.71,0,0,0,342.16,215.64Z"
         style="fill:#949494;stroke:#263238;stroke-linecap:round;stroke-linejoin:round"
         id="path2104" />
    </g>
    <path
       d="M342.16,215.64l-1.44-4.94-40,7.57-.36,2.06a46,46,0,0,0,20.16,1.27A102.71,102.71,0,0,0,342.16,215.64Z"
       style="fill:none;stroke:#263238;stroke-linecap:round;stroke-linejoin:round"
       id="path2108" />
    <path
       d="M364.14,130.18a137.42,137.42,0,0,0-8.66-23.06c-2.71-5.77-5.4-13-9.58-17.87-2.67-3.11-7.57-5.56-8.68-5.11s-6,2.44-6,5.11S333,91.92,333,91.92s-.45,3.34.89,4.67,8.23.89,8.23.89a29.16,29.16,0,0,1,3.05,5.79c1.33,4.44,2.51,5.33,3.4,13.34a160.58,160.58,0,0,0,3.78,18.91,8.38,8.38,0,0,0-2.23,2c-1.33,1.56-9.78,10-9.78,10a51.93,51.93,0,0,1-7.57,2.89,37.38,37.38,0,0,0-6.58,2.76c-1.37-.16-2.75-.31-3.49-.31-1.56,0-12.45,2-12.45,2a37.25,37.25,0,0,0-8-3.56,51.93,51.93,0,0,1-7.57-2.89s-8.45-8.45-9.78-10a8.38,8.38,0,0,0-2.23-2,160.58,160.58,0,0,0,3.78-18.91c.72-6.46,2.58-13.8,6.46-19.13,0,0,6.89.45,8.23-.89s.88-4.67.88-4.67,1.78,0,1.78-2.67-4.89-4.67-6-5.11-6,2-8.68,5.11-2.44,6.23-5.11,10.68-12,26-13.13,30.25-2.44,6.67-2.22,8.68,10.9,13.56,13.57,16.68,12.9,13.79,12.9,13.79,3.78,18.68,4.89,25.36.45,25.13.45,25.13,12.23-2.67,23.8-4,24.24-5.78,25.8-5.78h1.56s-8.68-10.68-8.68-12.24c0-1.24.29-23.9.4-33,3.23-3.4,7.8-8.24,9.45-10.17,2.67-3.12,13.35-14.68,13.57-16.68S365.25,134.41,364.14,130.18Z"
       style="fill:#fff"
       id="path2110" />
    <g
       style="clip-path:url(#freepik--clip-path-5--inject-42)"
       clip-path="url(#freepik--clip-path-5--inject-42)"
       id="g2118">
      <path
         d="M364.14,130.18a137.42,137.42,0,0,0-8.66-23.06c-2.71-5.77-5.4-13-9.58-17.87-2.67-3.11-7.57-5.56-8.68-5.11s-6,2.44-6,5.11S333,91.92,333,91.92s-.45,3.34.89,4.67,8.23.89,8.23.89a29.16,29.16,0,0,1,3.05,5.79c1.33,4.44,2.51,5.33,3.4,13.34a160.58,160.58,0,0,0,3.78,18.91,8.38,8.38,0,0,0-2.23,2c-1.33,1.56-9.78,10-9.78,10a51.93,51.93,0,0,1-7.57,2.89,37.38,37.38,0,0,0-6.58,2.76c-1.37-.16-2.75-.31-3.49-.31-1.56,0-12.45,2-12.45,2a37.25,37.25,0,0,0-8-3.56,51.93,51.93,0,0,1-7.57-2.89s-8.45-8.45-9.78-10a8.38,8.38,0,0,0-2.23-2,160.58,160.58,0,0,0,3.78-18.91c.72-6.46,2.58-13.8,6.46-19.13,0,0,6.89.45,8.23-.89s.88-4.67.88-4.67,1.78,0,1.78-2.67-4.89-4.67-6-5.11-6,2-8.68,5.11-2.44,6.23-5.11,10.68-12,26-13.13,30.25-2.44,6.67-2.22,8.68,10.9,13.56,13.57,16.68,12.9,13.79,12.9,13.79,3.78,18.68,4.89,25.36.45,25.13.45,25.13,12.23-2.67,23.8-4,24.24-5.78,25.8-5.78h1.56s-8.68-10.68-8.68-12.24c0-1.24.29-23.9.4-33,3.23-3.4,7.8-8.24,9.45-10.17,2.67-3.12,13.35-14.68,13.57-16.68S365.25,134.41,364.14,130.18Z"
         style="fill:#d9d9d9;stroke:#263238;stroke-linecap:round;stroke-linejoin:round"
         id="path2112" />
      <path
         d="M301.35,200c-.67-3.12-1.56-21.14-2.67-26.92s-3.78-8-5.34-10.45-6-6-11.57-12S271.1,139.52,272,135.07c.61-3.09,6.61-20.49,10.21-30.8-3.73,7.65-10.4,23.27-11.33,26.8-1.11,4.23-2.44,6.67-2.22,8.68s10.9,13.56,13.57,16.68,12.9,13.79,12.9,13.79,3.78,18.68,4.89,25.36a81.81,81.81,0,0,1,.63,10.78C301.21,203.51,301.57,201,301.35,200Z"
         style="opacity:0.25"
         id="path2114" />
      <path
         d="M363,137.74c0,3.34-16.24,15.35-20,21.58s-2.67,21.58-2.67,27.8a65.53,65.53,0,0,1-.22,7.57l2.9,3.52c0-3.56.28-24,.39-32.5,3.23-3.4,7.8-8.24,9.45-10.17,2.67-3.12,13.35-14.68,13.57-16.68s-1.11-4.45-2.22-8.68a137.42,137.42,0,0,0-8.66-23.06c-2.71-5.77-5.4-13-9.58-17.87,0,0,7.05,17.13,11.28,28.47S363,134.41,363,137.74Z"
         style="opacity:0.25"
         id="path2116" />
    </g>
    <path
       d="M364.14,130.18a137.42,137.42,0,0,0-8.66-23.06c-2.71-5.77-5.4-13-9.58-17.87-2.67-3.11-7.57-5.56-8.68-5.11s-6,2.44-6,5.11S333,91.92,333,91.92s-.45,3.34.89,4.67,8.23.89,8.23.89a29.16,29.16,0,0,1,3.05,5.79c1.33,4.44,2.51,5.33,3.4,13.34a160.58,160.58,0,0,0,3.78,18.91,8.38,8.38,0,0,0-2.23,2c-1.33,1.56-9.78,10-9.78,10a51.93,51.93,0,0,1-7.57,2.89,37.38,37.38,0,0,0-6.58,2.76c-1.37-.16-2.75-.31-3.49-.31-1.56,0-12.45,2-12.45,2a37.25,37.25,0,0,0-8-3.56,51.93,51.93,0,0,1-7.57-2.89s-8.45-8.45-9.78-10a8.38,8.38,0,0,0-2.23-2,160.58,160.58,0,0,0,3.78-18.91c.72-6.46,2.58-13.8,6.46-19.13,0,0,6.89.45,8.23-.89s.88-4.67.88-4.67,1.78,0,1.78-2.67-4.89-4.67-6-5.11-6,2-8.68,5.11-2.44,6.23-5.11,10.68-12,26-13.13,30.25-2.44,6.67-2.22,8.68,10.9,13.56,13.57,16.68,12.9,13.79,12.9,13.79,3.78,18.68,4.89,25.36.45,25.13.45,25.13,12.23-2.67,23.8-4,24.24-5.78,25.8-5.78h1.56s-8.68-10.68-8.68-12.24c0-1.24.29-23.9.4-33,3.23-3.4,7.8-8.24,9.45-10.17,2.67-3.12,13.35-14.68,13.57-16.68S365.25,134.41,364.14,130.18Z"
       style="fill:none;stroke:#263238;stroke-linecap:round;stroke-linejoin:round"
       id="path2120" />
    <path
       d="M302,92.81s-5.56-4.67-6-2.67,3.34,4.67,3.34,4.67"
       style="fill:none;stroke:#263238;stroke-linecap:round;stroke-linejoin:round"
       id="path2122" />
    <path
       d="M294.45,92.37a4.46,4.46,0,0,1-4,4.89"
       style="fill:none;stroke:#263238;stroke-linecap:round;stroke-linejoin:round"
       id="path2124" />
    <polyline
       points="297.57 93.48 293.12 91.25 293.34 89.7 294.67 89.03"
       style="fill:none;stroke:#263238;stroke-linecap:round;stroke-linejoin:round"
       id="polyline2126" />
    <path
       d="M298,86.46a27.2,27.2,0,0,1,.41,3.73"
       style="fill:none;stroke:#263238;stroke-linecap:round;stroke-linejoin:round"
       id="path2128" />
    <path
       d="M300.48,87.08a14.18,14.18,0,0,1,0,4.56"
       style="fill:none;stroke:#263238;stroke-linecap:round;stroke-linejoin:round"
       id="path2130" />
    <path
       d="M302.76,88.12a4.08,4.08,0,0,1-1.45,3.73"
       style="fill:none;stroke:#263238;stroke-linecap:round;stroke-linejoin:round"
       id="path2132" />
    <path
       d="M333,91.92s7.72-2,6.61.22-4.67,2.9-4.67,2.9"
       style="fill:none;stroke:#263238;stroke-linecap:round;stroke-linejoin:round"
       id="path2134" />
    <path
       d="M344.28,95.26a18.5,18.5,0,0,0-3.12-2c-1.11-.45-1.33-2-1.33-2s2.45-.44,2.45-1.55-1.78-2-1.78-2l-.23,1.12"
       style="fill:none;stroke:#263238;stroke-linecap:round;stroke-linejoin:round"
       id="path2136" />
    <path
       d="M337.37,86s-.88,4.41,2.46,5.21"
       style="fill:none;stroke:#263238;stroke-linecap:round;stroke-linejoin:round"
       id="path2138" />
    <path
       d="M334.88,86.25s-.62,3.32,1.45,5"
       style="fill:none;stroke:#263238;stroke-linecap:round;stroke-linejoin:round"
       id="path2140" />
    <path
       d="M333,87.5s-.63,2.9.82,3.93"
       style="fill:none;stroke:#263238;stroke-linecap:round;stroke-linejoin:round"
       id="path2142" />
    <path
       d="M324.26,216.71c11.57-1.34,24.24-5.78,25.8-5.78h1.56s-8.68-10.68-8.68-12.24c0-1.24.29-23.9.4-33l5-5.31c-2.45-.73-5.1-2-6.08-4.19-1.22-2.71-.63-7.4,0-10.66l-2,2a51.93,51.93,0,0,1-7.57,2.89,37.38,37.38,0,0,0-6.58,2.76c-1.37-.16-2.75-.31-3.49-.31-1.56,0-12.45,2-12.45,2a37.25,37.25,0,0,0-8-3.56,51.93,51.93,0,0,1-7.57-2.89l-.32-.32a55.81,55.81,0,0,1,.32,11c-.42,3.29-3.06,4.83-4.89,5.51,2.85,3,5.34,5.61,5.34,5.61s3.78,18.68,4.89,25.36.45,25.13.45,25.13S312.69,218,324.26,216.71Z"
       style="fill:#DB5C00;stroke:#263238;stroke-linecap:round;stroke-linejoin:round"
       id="path2144" />
    <path
       d="M319.42,175.36a26.26,26.26,0,0,1-2.5-3.14"
       style="fill:none;stroke:#263238;stroke-linecap:round;stroke-linejoin:round"
       id="path2146" />
    <path
       d="M342.94,198.69a130.62,130.62,0,0,0-14-14.23c-2.57-2.19-4.64-4.09-6.28-5.71"
       style="fill:none;stroke:#263238;stroke-linecap:round;stroke-linejoin:round"
       id="path2148" />
    <path
       d="m 305.73,144.73 c 0,0 -1.21,-2.43 -3.84,-7.28 -1.315,-2.425 2.23298,-5.74674 0.69426,-9.19915 -0.92391,-2.07298 -1.62737,-7.26764 -0.78767,-5.82946 9.85263,16.87493 2.86465,-5.09079 3.24736,-3.54695 4.60549,18.57854 2.90527,-1.17754 4.16541,-1.04103 1.26015,0.13651 2.13304,1.71308 2.02809,3.01213 -0.37432,4.63323 8.89181,0.0374 12.43907,0.43044 3.51807,0.38976 -0.23226,5.5665 5.5407,6.84485 4.17778,0.92511 -0.0472,8.11917 -0.85722,10.54917 -0.47903,1.43377 -0.74848,2.9292 -0.8,4.44 -0.52115,-0.62621 -1.13489,-1.16914 -1.82,-1.61 -1.42,-1 -3.84,-11.73 -7.08,-12.53 -3.24,-0.8 -10.1,1.03 -10.66,6.03 -0.56,5 -0.65,12.76 -2.27,9.73 z"
       style="fill:#263238;stroke:#263238;stroke-linecap:round;stroke-linejoin:round"
       id="path2150"
       inkscape:connector-curvature="0"
       sodipodi:nodetypes="csssssssscccssc" />
    <path
       d="M326.75,142.3s1.21-3.43,2.83-1.81.8,5-.21,6.46-1.81.61-2.42-1A7.66,7.66,0,0,1,326.75,142.3Z"
       style="fill:#fff"
       id="path2152" />
    <g
       style="clip-path:url(#freepik--clip-path-6--inject-42)"
       clip-path="url(#freepik--clip-path-6--inject-42)"
       id="g2156">
      <path
         d="M326.75,142.3s1.21-3.43,2.83-1.81.8,5-.21,6.46-1.81.61-2.42-1A7.66,7.66,0,0,1,326.75,142.3Z"
         style="fill:#d9d9d9;stroke:#263238;stroke-linecap:round;stroke-linejoin:round"
         id="path2154" />
    </g>
    <path
       d="M326.75,142.3s1.21-3.43,2.83-1.81.8,5-.21,6.46-1.81.61-2.42-1A7.66,7.66,0,0,1,326.75,142.3Z"
       style="fill:none;stroke:#263238;stroke-linecap:round;stroke-linejoin:round"
       id="path2158" />
    <path
       d="M306.65,144.3s-2.09-3-3.21-1,.58,5.09,1.94,6.17,1.91.1,2.06-1.62A7.68,7.68,0,0,0,306.65,144.3Z"
       style="fill:#fff"
       id="path2160" />
    <g
       style="clip-path:url(#freepik--clip-path-7--inject-42)"
       clip-path="url(#freepik--clip-path-7--inject-42)"
       id="g2164">
      <path
         d="M306.65,144.3s-2.09-3-3.21-1,.58,5.09,1.94,6.17,1.91.1,2.06-1.62A7.68,7.68,0,0,0,306.65,144.3Z"
         style="fill:#d9d9d9;stroke:#263238;stroke-linecap:round;stroke-linejoin:round"
         id="path2162" />
    </g>
    <path
       d="M306.65,144.3s-2.09-3-3.21-1,.58,5.09,1.94,6.17,1.91.1,2.06-1.62A7.68,7.68,0,0,0,306.65,144.3Z"
       style="fill:none;stroke:#263238;stroke-linecap:round;stroke-linejoin:round"
       id="path2166" />
    <path
       d="M309.37,153.82a43.48,43.48,0,0,0,.6,8.69,58.52,58.52,0,0,0,1.82,7.68l7.28-6.87,9.09,4.85s1.42-9.29-1.41-13.34-12.13-4.44-14.55-3A10.09,10.09,0,0,0,309.37,153.82Z"
       style="fill:#fff;stroke:#263238;stroke-linecap:round;stroke-linejoin:round"
       id="path2168" />
    <path
       d="M312,155.85s5.26,13.74,8.09,12.73,3.64-13.14,3.64-13.14S315,157.26,312,155.85Z"
       style="fill:#fff"
       id="path2170" />
    <g
       style="clip-path:url(#freepik--clip-path-8--inject-42)"
       clip-path="url(#freepik--clip-path-8--inject-42)"
       id="g2176">
      <path
         d="M312,155.85s5.26,13.74,8.09,12.73,3.64-13.14,3.64-13.14S315,157.26,312,155.85Z"
         style="fill:#d9d9d9;stroke:#263238;stroke-linecap:round;stroke-linejoin:round"
         id="path2172" />
      <path
         d="M312,155.85s5.26,13.74,8.09,12.73,3.64-13.14,3.64-13.14S315,157.26,312,155.85Z"
         style="opacity:0.25"
         id="path2174" />
    </g>
    <path
       d="M312,155.85s5.26,13.74,8.09,12.73,3.64-13.14,3.64-13.14S315,157.26,312,155.85Z"
       style="fill:none;stroke:#263238;stroke-linecap:round;stroke-linejoin:round"
       id="path2178" />
    <path
       d="M305.12,138.87s1,8.89,2.23,12.93,5.9,7.71,12.16,6.7S328,148.37,328,147.76s-.4-11.52-2.83-15.56-7.07-7.88-13.54-4.85S304.52,136.65,305.12,138.87Z"
       style="fill:#fff"
       id="path2180" />
    <g
       style="clip-path:url(#freepik--clip-path-9--inject-42)"
       clip-path="url(#freepik--clip-path-9--inject-42)"
       id="g2186">
      <path
         d="M305.12,138.87s1,8.89,2.23,12.93,5.9,7.71,12.16,6.7S328,148.37,328,147.76s-.4-11.52-2.83-15.56-7.07-7.88-13.54-4.85S304.52,136.65,305.12,138.87Z"
         style="fill:#d9d9d9;stroke:#263238;stroke-linecap:round;stroke-linejoin:round"
         id="path2182" />
      <path
         d="M328,147.76c0-.61-.4-11.52-2.83-15.56a15.58,15.58,0,0,0-1.66-2.28c.59,2.52,3.65,16.09,1.23,20.72-2.67,5.12-8.45,5.57-13.79,2.9-4-2-5.1-13.61-5.43-19.5a9.18,9.18,0,0,0-.36,4.83s1,8.89,2.23,12.93,5.9,7.71,12.16,6.7S328,148.37,328,147.76Z"
         style="opacity:0.25"
         id="path2184" />
    </g>
    <path
       d="M305.12,138.87s1,8.89,2.23,12.93,5.9,7.71,12.16,6.7S328,148.37,328,147.76s-.4-11.52-2.83-15.56-7.07-7.88-13.54-4.85S304.52,136.65,305.12,138.87Z"
       style="fill:none;stroke:#263238;stroke-linecap:round;stroke-linejoin:round"
       id="path2188" />
    <path
       d="m 310.87,146.07 a 10.56,10.56 0 0 0 10.23,-2.47 c 0.9,0.3 0.56,5.73 -4.41,6.52 a 5.14,5.14 0 0 1 -5.82,-4.05 z"
       style="fill:#ffffff;stroke:#263238;stroke-linecap:round;stroke-linejoin:round"
       id="path2190"
       inkscape:connector-curvature="0" />
    <path
       d="M313.74,139.26s-1.24,1.73-.62,2.34,3.08.74,4.32-.61-.74-2.59-.74-2.59"
       style="fill:none;stroke:#263238;stroke-linecap:round;stroke-linejoin:round"
       id="path2192" />
    <path
       d="M309,140.08s.61-2,3.84-2"
       style="fill:none;stroke:#263238;stroke-linecap:round;stroke-linejoin:round"
       id="path2194" />
    <path
       d="M318.46,137.25a3.62,3.62,0,0,1,4.75-.54"
       style="fill:none;stroke:#263238;stroke-linecap:round;stroke-linejoin:round"
       id="path2196" />
    <path
       d="M312.4,134s-4.62-.92-5.19,3.27"
       style="fill:none;stroke:#263238;stroke-linecap:round;stroke-linejoin:round;stroke-width:2px"
       id="path2198" />
    <path
       d="M317.3,133.48s3.26-2.64,6.29.19"
       style="fill:none;stroke:#263238;stroke-linecap:round;stroke-linejoin:round;stroke-width:2px"
       id="path2200" />
  </g>
  <path
     inkscape:connector-curvature="0"
     id="path2203"
     style="fill:#263238;stroke:#263238;stroke-linecap:round;stroke-linejoin:round"
     d="m 202.51,137.74 c 0,0 0,-4.71 -5.07,-8.15 -5.07,-3.44 -17.22,-1.45 -21.75,4.35 -4.53,5.8 -4.9,10 -10.15,11.6 -5.25,1.6 -17.22,3.46 -25.54,12.14 -8.32,8.68 -4.71,26.46 -0.9,27.91 3.81,1.45 -0.91,-1.27 -0.37,-6 a 7.07,7.07 0 0 1 4.35,-6 c 0,0 -4.89,7.79 5.44,17.94 10.33,10.15 21.75,7.8 31.36,5.8 9.61,-2 21.38,-9.06 22.29,-17.4 0.91,-8.34 -2.18,-13.05 0,-16.85 2.18,-3.8 10.15,-3.27 11.24,-10.51 1.09,-7.24 -1.84,-16.82 -10.9,-14.83 z" />
  <path
     inkscape:connector-curvature="0"
     id="path2205"
     style="fill:#ffffff;stroke:#263238;stroke-linecap:round;stroke-linejoin:round"
     d="m 237.42,267.25 c 0,0 5.06,-6.4 7,-6.61 1.94,-0.21 4.82,4.19 6.08,7.55 1.26,3.36 4.19,10.26 4.19,13.62 0,5.87 -2.52,7.75 -3.56,6.7 -1.04,-1.05 -3.78,-7.54 -5.24,-8.8 a 8.63,8.63 0 0 0 -3.18,-1.68 c 0,0 -3.22,-8.15 -5.29,-10.78 z" />
  <path
     inkscape:connector-curvature="0"
     id="path2207"
     style="fill:none;stroke:#263238;stroke-linecap:round;stroke-linejoin:round"
     d="m 242.55,262.24 c 0,0 6.13,6.13 8.31,12 2.18,5.87 2.85,11.6 0.88,14" />
  <path
     inkscape:connector-curvature="0"
     id="path2209"
     style="fill:#ffffff;stroke:#263238;stroke-linecap:round;stroke-linejoin:round"
     d="m 226.14,312.62 c 0,0 6.07,0.42 8.17,0.63 2.1,0.21 2.1,5.24 1.26,8.8 -0.84,3.56 -1.89,5.87 -1,9.85 0.89,3.98 -1.47,8.38 -2.73,10.27 -1.26,1.89 -4,1.47 -4.19,0 -0.19,-1.47 0.63,-10.06 -2.3,-14.88 -2.93,-4.82 -2.57,-11.29 0.79,-14.67 z" />
  <path
     inkscape:connector-curvature="0"
     id="path2211"
     style="fill:none;stroke:#263238;stroke-linecap:round;stroke-linejoin:round"
     d="m 231.83,313 a 11.93,11.93 0 0 1 1.31,7.66 c -0.66,4.59 0.22,11.82 0.22,13.57 0,1.75 -2.41,8.53 -3.28,8.75" />
  <path
     inkscape:connector-curvature="0"
     id="path2213"
     style="fill:#ffffff;stroke:#263238;stroke-linecap:round;stroke-linejoin:round"
     d="m 253.62,97 c -1.09,0 -5.44,1.09 -5.8,2.36 -0.36,1.27 -0.9,13.59 -0.9,13.59 0,0 -7.62,14.5 -10.15,19.94 -2.53,5.44 -9.25,18.49 -9.25,18.49 l -16.85,17.58 c 0,0 -2.54,1.27 -6.89,3.8 -0.41,0.24 -0.84,0.51 -1.27,0.78 l -8,1.76 -6.86,-1.3 a 115.18,115.18 0 0 0 -10.15,-7.07 c -4.35,-2.53 -6.89,-3.8 -6.89,-3.8 l -16.85,-17.58 c 0,0 -6.71,-13 -9.25,-18.49 -2.54,-5.49 -10.15,-19.94 -10.15,-19.94 0,0 -0.54,-12.32 -0.9,-13.59 -0.36,-1.27 -4.72,-2.36 -5.8,-2.36 -1.08,0 -3.08,5.8 -2.36,7.07 0.72,1.27 2.7,1.26 2.7,1.26 a 34.21,34.21 0 0 0 0,4.35 c 0.18,0.91 2.9,2.72 2.9,2.72 0,0 3.81,15.77 6.34,26.64 2.53,10.87 5.8,18.13 7.25,19.4 1.45,1.27 15.77,15.76 18.67,20.66 a 58.12,58.12 0 0 0 8.16,10 c 0,0 -1.63,8 -1.63,12.32 0,4.32 4.35,13.59 5.8,17.76 1.45,4.17 3.26,23.56 3.26,24.11 0,0.55 0.9,12.5 0.9,12.5 0,0 -9.78,21.39 -12.86,36.61 -3.08,15.22 -1.64,23.93 5.43,27.19 7.07,3.26 39.15,7.79 40.06,8.88 0.91,1.09 1.63,1.81 2.9,1.81 1.27,0 2.9,-0.72 4,0 1.1,0.72 1.08,1.27 2.35,1.27 a 3.89,3.89 0 0 1 2.9,2 c 0.36,0.72 2.54,-0.73 3.26,-6.17 0.72,-5.44 -0.36,-8 -1.45,-8.15 -1.09,-0.15 -0.9,-2 -2.71,-2 a 47.48,47.48 0 0 0 -5.8,0.73 13.64,13.64 0 0 0 -2.9,-0.54 c -1.09,0 -2.36,-0.91 -3.09,-1.09 -0.73,-0.18 -12.68,-5.08 -12.68,-5.08 l -0.46,-0.24 c 12.1,-6.9 29.26,-19.11 29.26,-19.11 0,0 4.93,-0.31 7.09,-2.16 a 31.69,31.69 0 0 0 4,-4.31 l 3.7,-1.54 a 12.48,12.48 0 0 0 -2.16,-6.78 c -2.15,-2.77 -3.08,-4 -3.08,-4 0,0 -5.85,2.77 -7.7,3.39 -1.85,0.62 -4.62,0.92 -6.16,2.46 -1.54,1.54 -5.54,4.62 -5.54,4.62 l -13.55,7.08 c 0,0 17.25,-22.17 19.4,-31.41 1.85,-7.92 -1,-16.67 -5.72,-23.06 -3.57,-4.8 -8.58,-8.46 -12.38,-13.11 -1.82,-2.21 -3.21,-3.85 -3.08,-4.8 0.21,-1.47 1.93,-8.87 3.49,-15.17 l 4.86,-9.32 c 1.2,-1.25 6.56,-8 7.06,-8.86 2.9,-4.9 17.22,-19.4 18.67,-20.67 1.45,-1.27 4.71,-8.51 7.25,-19.39 2.54,-10.88 6.34,-26.64 6.34,-26.64 0,0 2.72,-1.81 2.9,-2.72 a 34.21,34.21 0 0 0 0,-4.35 c 0,0 2,0 2.72,-1.27 0.72,-1.27 -1.26,-7.06 -2.35,-7.06 z" />
  <path
     inkscape:connector-curvature="0"
     id="path2215"
     style="fill:#808080;stroke:#263238;stroke-linecap:round;stroke-linejoin:round;fill-opacity:1"
     d="m 237.42,267.25 c 0,0 -5.85,2.77 -7.7,3.39 -1.85,0.62 -4.62,0.92 -6.16,2.46 -1.54,1.54 -5.54,4.62 -5.54,4.62 l -13.55,7.08 c 0,0 17.25,-22.17 19.4,-31.41 1.85,-7.92 -1,-16.67 -5.72,-23.06 a 53.18,53.18 0 0 0 -5.94,-6.45 74,74 0 0 1 -12.27,8.68 34.43,34.43 0 0 1 -21.2,4.52 c 0,0.19 0,0.31 0,0.35 0,0.54 0.9,12.5 0.9,12.5 0,0 -9.78,21.39 -12.86,36.61 -3.08,15.22 -1.64,23.93 5.43,27.19 7.07,3.26 39.15,7.79 40.06,8.88 0.91,1.09 1.63,1.81 2.9,1.81 1.27,0 2.9,-0.72 4,0 1.1,0.72 1.08,1.27 2.35,1.27 a 3.89,3.89 0 0 1 2.9,2 c 0.36,0.72 2.54,-0.73 3.26,-6.17 0.72,-5.44 -0.36,-8 -1.45,-8.15 -1.09,-0.15 -0.9,-2 -2.71,-2 a 47.48,47.48 0 0 0 -5.8,0.73 13.64,13.64 0 0 0 -2.9,-0.54 c -1.09,0 -2.36,-0.91 -3.09,-1.09 -0.73,-0.18 -12.68,-5.08 -12.68,-5.08 l -0.46,-0.24 c 12.1,-6.9 29.26,-19.11 29.26,-19.11 0,0 4.93,-0.31 7.09,-2.16 a 31.69,31.69 0 0 0 4,-4.31 l 3.7,-1.54 a 12.48,12.48 0 0 0 -2.16,-6.78 c -2.13,-2.77 -3.06,-4 -3.06,-4 z" />
  <path
     inkscape:connector-curvature="0"
     id="path2217"
     style="fill:none;stroke:#ffffff;stroke-linecap:round;stroke-linejoin:round"
     d="m 191.14,248.69 3.56,1.68 c 0,0 -14.88,35.84 -17,46.11 -2.12,10.27 0.42,15.3 4.4,15.3 3.98,0 15.3,-5.87 15.3,-5.87" />
  <path
     inkscape:connector-curvature="0"
     id="path2219"
     style="fill:none;stroke:#ffffff;stroke-linecap:round;stroke-linejoin:round"
     d="m 204.47,284.8 c 0,0 -8.93,13.2 -11.47,16.29" />
  <path
     inkscape:connector-curvature="0"
     id="path2221"
     style="fill:#ffffff;stroke:#263238;stroke-linecap:round;stroke-linejoin:round"
     d="m 131.83,96.06 c 0,0 -3.63,-5.08 -4.17,-6.17 -0.54,-1.09 -1.63,2 -0.73,3.81 a 13.26,13.26 0 0 0 2.18,3.08 c 0,0 -1.45,4.35 0.72,6.16" />
  <path
     inkscape:connector-curvature="0"
     id="path2223"
     style="fill:#ffffff;stroke:#263238;stroke-linecap:round;stroke-linejoin:round"
     d="m 248.42,102.85 c 0,0 3.62,-5.07 4.17,-6.16 0.55,-1.09 1.63,2 0.72,3.81 a 13.4,13.4 0 0 1 -2.17,3.08 c 0,0 1.45,4.35 -0.73,6.16" />
  <path
     inkscape:connector-curvature="0"
     id="path2225"
     style="fill:#db5c00"
     d="m 171.34,183.24 c 0,0 -1.63,8 -1.63,12.32 0,4.32 4.35,13.59 5.8,17.76 1.45,4.17 3.26,23.56 3.26,24.11 0,0.15 0.07,1.22 0.18,2.68 6.41,1.79 19.63,2.4 35.39,-14.12 -2.86,-2.91 -6,-5.62 -8.57,-8.77 -1.82,-2.21 -3.21,-3.85 -3.08,-4.8 0.21,-1.47 1.93,-8.87 3.49,-15.17 l 4.86,-9.32 c 1.2,-1.25 6.56,-8 7.06,-8.86 2.9,-4.9 17.22,-19.4 18.67,-20.67 1.45,-1.27 4.71,-8.51 7.25,-19.39 0.93,-4 2,-8.69 3.07,-13 a 23.16,23.16 0 0 1 -5.88,-2.08 c -1.75,3.42 -3.47,6.84 -4.44,8.92 -2.54,5.44 -9.25,18.49 -9.25,18.49 l -16.85,17.58 c 0,0 -2.54,1.27 -6.89,3.8 -0.41,0.24 -0.84,0.51 -1.27,0.78 l -8,1.76 -6.86,-1.26 a 115.18,115.18 0 0 0 -10.15,-7.07 c -4.35,-2.53 -6.89,-3.8 -6.89,-3.8 l -16.85,-17.58 c 0,0 -6.71,-13 -9.25,-18.49 -1.17,-2.5 -3.41,-6.93 -5.49,-11 a 54.57,54.57 0 0 1 -5.36,1.93 c 1.17,4.86 2.5,10.49 3.6,15.2 2.54,10.88 5.8,18.13 7.25,19.4 1.45,1.27 15.77,15.76 18.67,20.66 a 58.12,58.12 0 0 0 8.16,9.99 z" />
  <g
     id="g2263"
     clip-path="url(#freepik--clip-path-10--inject-42)"
     style="fill:#9e90a2;fill-opacity:1">
    <path
       inkscape:connector-curvature="0"
       id="path2227"
       style="fill:#9e90a2;fill-opacity:1"
       d="m 171.84,163.75 c -0.8,-0.42 -1.23,-0.63 -1.23,-0.63 l -1,-1.05 -8.17,8.74 a 28.22,28.22 0 0 1 1.64,2.3 z" />
    <path
       inkscape:connector-curvature="0"
       id="path2229"
       style="fill:#9e90a2;fill-opacity:1"
       d="m 164.19,156.42 -1.93,-2 -9,7.11 c 0.63,0.67 1.27,1.35 1.89,2 z" />
    <path
       inkscape:connector-curvature="0"
       id="path2231"
       style="fill:#9e90a2;fill-opacity:1"
       d="m 178.75,167.68 -1.25,-0.76 -1.17,-0.68 -10,11.46 c 0.62,0.77 1.23,1.49 1.81,2.14 z" />
    <path
       inkscape:connector-curvature="0"
       id="path2233"
       style="fill:#9e90a2;fill-opacity:1"
       d="m 156.16,148 -10.4,5.76 2,2 10.34,-5.74 z" />
    <path
       inkscape:connector-curvature="0"
       id="path2235"
       style="fill:#9e90a2;fill-opacity:1"
       d="m 181.68,169.62 -4.33,4.83 a 1.37,1.37 0 0 0 -0.53,0.31 1.25,1.25 0 0 0 -0.36,0.69 l -6.1,6.8 c 0.6,0.62 1,1 1,1 0,0 -0.3,1.46 -0.64,3.48 l 1.11,-1.68 c 2.71,1.16 10.25,3.25 29.41,3.25 q 2.94,0 6.25,-0.07 a 1.41,1.41 0 0 0 0.58,-0.14 5.73,5.73 0 0 0 2.33,1.12 l 0.66,-1.27 c 0.24,-0.25 0.65,-0.73 1.15,-1.33 a 7.74,7.74 0 0 1 -1,0 c -3.45,-0.42 -5.56,-7.77 -6.47,-14.38 l -1,0.55 c -0.41,0.24 -0.84,0.51 -1.27,0.78 l -0.36,0.08 c 0.15,1 0.32,2 0.54,3 -13.25,3.41 -20.14,0.64 -22.71,-0.91 l 4,-4.44 c -0.69,-0.57 -1.46,-1.12 -2.26,-1.67 z M 191,181 a 50.05,50.05 0 0 0 12.33,-1.72 24.9,24.9 0 0 0 2.51,6.2 c -20.64,0.33 -29.17,-1.66 -32.21,-2.72 l 4.47,-5 C 180,179 184.06,181 191,181 Z" />
    <path
       inkscape:connector-curvature="0"
       id="path2237"
       style="fill:#9e90a2;fill-opacity:1"
       d="m 146.46,131.09 -8.81,3.73 c 0.24,0.94 0.47,1.84 0.71,2.72 l 9.34,-4 z" />
    <path
       inkscape:connector-curvature="0"
       id="path2239"
       style="fill:#9e90a2;fill-opacity:1"
       d="m 142.39,122.7 -7,2.59 c 0.21,0.91 0.43,1.81 0.64,2.71 l 7.59,-2.8 z" />
    <path
       inkscape:connector-curvature="0"
       id="path2241"
       style="fill:#9e90a2;fill-opacity:1"
       d="m 151.89,141.88 c -0.39,-0.75 -0.81,-1.59 -1.26,-2.47 l -9.84,5.77 c 0.35,0.95 0.69,1.82 1,2.6 z" />
    <path
       inkscape:connector-curvature="0"
       id="path2243"
       style="fill:#9e90a2;fill-opacity:1"
       d="m 231.83,142.86 c -0.44,0.89 -0.88,1.76 -1.3,2.58 2.73,2.47 5.87,5.18 9.13,7.67 0.34,-0.82 0.68,-1.72 1,-2.71 -3.13,-2.46 -6.19,-5.13 -8.83,-7.54 z" />
    <path
       inkscape:connector-curvature="0"
       id="path2245"
       style="fill:#9e90a2;fill-opacity:1"
       d="m 203.21,209.85 c 0.18,-0.83 0.4,-1.82 0.65,-2.9 -14.59,2 -25.32,0.25 -31.4,-1.4 0.43,1.11 0.86,2.2 1.28,3.23 a 73.79,73.79 0 0 0 17.16,1.9 94.05,94.05 0 0 0 12.31,-0.83 z" />
    <path
       inkscape:connector-curvature="0"
       id="path2247"
       style="fill:#9e90a2;fill-opacity:1"
       d="m 235.2,136.1 a 96.48,96.48 0 0 0 8.21,5.37 c 0.21,-0.8 0.41,-1.62 0.61,-2.46 0,-0.12 0,-0.25 0.08,-0.37 a 89.83,89.83 0 0 1 -7.67,-5.09 c -0.35,0.76 -0.77,1.62 -1.23,2.55 z" />
    <path
       inkscape:connector-curvature="0"
       id="path2249"
       style="fill:#9e90a2;fill-opacity:1"
       d="m 169.72,195.11 c 0,0.15 0,0.31 0,0.45 a 11.91,11.91 0 0 0 0.29,2.33 c 5.91,-0.44 18.14,-0.72 35.54,2 0.21,-0.88 0.43,-1.76 0.64,-2.62 v -0.09 c -17.93,-2.85 -30.4,-2.55 -36.47,-2.07 z" />
    <path
       inkscape:connector-curvature="0"
       id="path2251"
       style="fill:#9e90a2;fill-opacity:1"
       d="m 210.9,222.61 c -0.69,-0.66 -1.36,-1.33 -2,-2 -10.43,7 -22.84,9.86 -30.65,11 0.11,1 0.2,2 0.28,2.8 8.16,-1.15 21.28,-4.14 32.37,-11.8 z" />
    <path
       inkscape:connector-curvature="0"
       id="path2253"
       style="fill:#9e90a2;fill-opacity:1"
       d="m 176.78,219.77 c 0.13,0.9 0.26,1.85 0.39,2.82 1,0 2.16,0 3.36,0 a 89.93,89.93 0 0 0 26.69,-3.77 c -0.49,-0.54 -1,-1.08 -1.45,-1.65 l -0.54,-0.65 c -10.62,3.18 -21.73,3.48 -28.45,3.25 z" />
    <path
       inkscape:connector-curvature="0"
       id="path2255"
       style="fill:#9e90a2;fill-opacity:1"
       d="m 225.47,153.47 c 2.39,3 5,5.89 7.6,8.59 l 2,-2 c -2.6,-2.73 -5.25,-5.68 -7.63,-8.63 z" />
    <path
       inkscape:connector-curvature="0"
       id="path2257"
       style="fill:#9e90a2;fill-opacity:1"
       d="m 226.25,169.23 1.9,-2 a 49.83,49.83 0 0 1 -8.22,-7.94 l -1.94,2 a 51.46,51.46 0 0 0 8.26,7.94 z" />
    <path
       inkscape:connector-curvature="0"
       id="path2259"
       style="fill:#9e90a2;fill-opacity:1"
       d="m 218.1,179.07 a 17.1,17.1 0 0 1 1.07,-1.58 c -1.55,-2.92 -3.81,-7.26 -5.81,-11.39 l -2,2.14 c 2.21,4.53 4.65,9.16 6.08,11.81 0.31,-0.48 0.56,-0.83 0.66,-0.98 z" />
    <path
       inkscape:connector-curvature="0"
       id="path2261"
       style="opacity:0.25;fill:#9e90a2;fill-opacity:1"
       d="m 246.83,126 c -4.28,9.44 -12.46,27.48 -14.08,31.07 -2.21,4.92 -19.66,22.61 -22.61,24.33 -2.95,1.72 -4.67,5.9 -5.9,10.32 -1.17,4.21 -4.56,7.53 -4.88,12.08 -1.68,-1.28 -5,-2.35 -9.62,-2.74 -8.85,-0.74 -17.2,1.48 -17.2,-6.63 0,-8.11 5.16,-16 5.41,-18.44 0.25,-2.44 -4.67,2 -7.13,0.25 -2.46,-1.75 -19.17,-20.89 -24.09,-27 -3.13,-3.92 -8.69,-20.14 -12.31,-31.39 l -0.76,0.24 c 1.17,4.86 2.5,10.49 3.6,15.2 2.54,10.88 5.8,18.13 7.25,19.39 1.45,1.26 15.77,15.77 18.67,20.67 a 58.12,58.12 0 0 0 8.16,10 c 0,0 -1.63,8 -1.63,12.32 0,4.32 4.35,13.59 5.8,17.76 1.45,4.17 3.26,23.56 3.26,24.11 0,0.15 0.07,1.22 0.18,2.68 a 24.48,24.48 0 0 0 2.69,0.58 c -0.17,-7.6 -1.43,-23.44 0.73,-26.9 2.35,-3.76 13.69,-3.93 17,-6.08 a 18.6,18.6 0 0 0 4.09,11 c 1.79,2.35 5.87,5.56 9.78,8.37 l 1.06,-1.08 c -2.86,-2.91 -6,-5.62 -8.57,-8.77 -1.82,-2.21 -3.21,-3.85 -3.08,-4.8 0.21,-1.47 1.93,-8.87 3.49,-15.17 l 4.86,-9.32 c 1.2,-1.25 6.56,-8 7.06,-8.86 2.9,-4.9 17.22,-19.4 18.67,-20.67 1.45,-1.27 4.71,-8.51 7.25,-19.39 0.93,-4 2,-8.69 3.07,-13 z" />
  </g>
  <path
     inkscape:connector-curvature="0"
     id="path2265"
     style="fill:none;stroke:#263238;stroke-linecap:round;stroke-linejoin:round"
     d="m 171.34,183.24 c 0,0 -1.63,8 -1.63,12.32 0,4.32 4.35,13.59 5.8,17.76 1.45,4.17 3.26,23.56 3.26,24.11 0,0.15 0.07,1.22 0.18,2.68 6.41,1.79 19.63,2.4 35.39,-14.12 -2.86,-2.91 -6,-5.62 -8.57,-8.77 -1.82,-2.21 -3.21,-3.85 -3.08,-4.8 0.21,-1.47 1.93,-8.87 3.49,-15.17 l 4.86,-9.32 c 1.2,-1.25 6.56,-8 7.06,-8.86 2.9,-4.9 17.22,-19.4 18.67,-20.67 1.45,-1.27 4.71,-8.51 7.25,-19.39 0.93,-4 2,-8.69 3.07,-13 a 23.16,23.16 0 0 1 -5.88,-2.08 c -1.75,3.42 -3.47,6.84 -4.44,8.92 -2.54,5.44 -9.25,18.49 -9.25,18.49 l -16.85,17.58 c 0,0 -2.54,1.27 -6.89,3.8 -0.41,0.24 -0.84,0.51 -1.27,0.78 l -8,1.76 -6.86,-1.26 a 115.18,115.18 0 0 0 -10.15,-7.07 c -4.35,-2.53 -6.89,-3.8 -6.89,-3.8 l -16.85,-17.58 c 0,0 -6.71,-13 -9.25,-18.49 -1.17,-2.5 -3.41,-6.93 -5.49,-11 a 54.57,54.57 0 0 1 -5.36,1.93 c 1.17,4.86 2.5,10.49 3.6,15.2 2.54,10.88 5.8,18.13 7.25,19.4 1.45,1.27 15.77,15.76 18.67,20.66 a 58.12,58.12 0 0 0 8.16,9.99 z" />
  <path
     inkscape:connector-curvature="0"
     id="path2267"
     style="fill:#ffffff"
     d="m 185.84,159.85 c 0,0 0.18,11.42 -0.73,14.14 -0.91,2.72 -6,8 -3.8,12.33 2.2,4.33 10.15,-0.55 13,-5.8 2.85,-5.25 1.46,-6.89 1.46,-6.89 v -8 z" />
  <g
     id="g2273"
     clip-path="url(#freepik--clip-path-11--inject-42)">
    <path
       inkscape:connector-curvature="0"
       id="path2269"
       style="fill:#db5c00"
       d="m 195.81,165.65 -10,-5.8 c 0,0 0.18,11.42 -0.73,14.14 a 7.13,7.13 0 0 1 -0.49,1.09 10.23,10.23 0 0 0 5.86,0.13 15.39,15.39 0 0 0 5.33,-3.74 z" />
    <path
       inkscape:connector-curvature="0"
       id="path2271"
       style="opacity:0.5;fill:#ffffff"
       d="m 195.81,165.65 -10,-5.8 c 0,0 0.18,11.42 -0.73,14.14 a 7.13,7.13 0 0 1 -0.49,1.09 10.23,10.23 0 0 0 5.86,0.13 15.39,15.39 0 0 0 5.33,-3.74 z" />
  </g>
  <path
     inkscape:connector-curvature="0"
     id="path2275"
     style="fill:none;stroke:#263238;stroke-linecap:round;stroke-linejoin:round"
     d="m 185.84,159.85 c 0,0 0.18,11.42 -0.73,14.14 -0.91,2.72 -6,8 -3.8,12.33 2.2,4.33 10.15,-0.55 13,-5.8 2.85,-5.25 1.46,-6.89 1.46,-6.89 v -8 z" />
  <path
     inkscape:connector-curvature="0"
     id="path2277"
     style="fill:#ffffff"
     d="m 183.84,152.24 c 0,0 -3.44,-3.26 -4.35,-0.9 -0.91,2.36 1.45,5.8 2.72,6.16 l 1.27,0.36 a 14.58,14.58 0 0 0 3.63,6.89 c 2.9,2.9 6.16,4.35 9.78,2.54 3.62,-1.81 6.53,-6.35 7.43,-11.78 a 30.6,30.6 0 0 0 0.55,-8.16 c 0,-0.91 -1.63,-7.43 -6.35,-9.06 -4.72,-1.63 -4.17,0.36 -7.79,4.53 a 86.46,86.46 0 0 0 -6.89,9.42 z" />
  <g
     id="g2283"
     clip-path="url(#freepik--clip-path-12--inject-42)">
    <path
       inkscape:connector-curvature="0"
       id="path2279"
       style="fill:#db5c00"
       d="m 203.88,144 c 0.3,3 0.8,10.78 -1.36,14.51 -2.7,4.66 -5.41,9.09 -10.81,6.88 -5.4,-2.21 -7.13,-7.87 -7.13,-7.87 0,0 -1.47,0.25 -3.69,-1.72 a 2.55,2.55 0 0 0 -0.78,-0.5 4.77,4.77 0 0 0 2.1,2.21 l 1.27,0.36 a 14.58,14.58 0 0 0 3.63,6.89 c 2.9,2.9 6.16,4.35 9.78,2.54 3.62,-1.81 6.53,-6.35 7.43,-11.78 a 30.6,30.6 0 0 0 0.55,-8.16 11.78,11.78 0 0 0 -0.99,-3.36 z" />
    <path
       inkscape:connector-curvature="0"
       id="path2281"
       style="opacity:0.5;fill:#ffffff"
       d="m 203.88,144 c 0.3,3 0.8,10.78 -1.36,14.51 -2.7,4.66 -5.41,9.09 -10.81,6.88 -5.4,-2.21 -7.13,-7.87 -7.13,-7.87 0,0 -1.47,0.25 -3.69,-1.72 a 2.55,2.55 0 0 0 -0.78,-0.5 4.77,4.77 0 0 0 2.1,2.21 l 1.27,0.36 a 14.58,14.58 0 0 0 3.63,6.89 c 2.9,2.9 6.16,4.35 9.78,2.54 3.62,-1.81 6.53,-6.35 7.43,-11.78 a 30.6,30.6 0 0 0 0.55,-8.16 11.78,11.78 0 0 0 -0.99,-3.36 z" />
  </g>
  <path
     inkscape:connector-curvature="0"
     id="path2285"
     style="fill:none;stroke:#263238;stroke-linecap:round;stroke-linejoin:round"
     d="m 183.84,152.24 c 0,0 -3.44,-3.26 -4.35,-0.9 -0.91,2.36 1.45,5.8 2.72,6.16 l 1.27,0.36 a 14.58,14.58 0 0 0 3.63,6.89 c 2.9,2.9 6.16,4.35 9.78,2.54 3.62,-1.81 6.53,-6.35 7.43,-11.78 a 30.6,30.6 0 0 0 0.55,-8.16 c 0,-0.91 -1.63,-7.43 -6.35,-9.06 -4.72,-1.63 -4.17,0.36 -7.79,4.53 a 86.46,86.46 0 0 0 -6.89,9.42 z" />
  <path
     inkscape:connector-curvature="0"
     id="path2287"
     style="fill:none;stroke:#263238;stroke-linecap:round;stroke-linejoin:round"
     d="m 198.89,148.62 c 0,0 -1.27,2.35 -0.73,2.9 0.54,0.55 2.36,1.63 1.45,2.17 a 6.71,6.71 0 0 1 -2.72,0.55" />
  <path
     inkscape:connector-curvature="0"
     id="path2289"
     style="fill:none;stroke:#263238;stroke-linecap:round;stroke-linejoin:round"
     d="m 191.64,155 c 0,0 2.17,2.54 9.06,1.63 0,0 -4.17,4.17 -6,4.17 -1.83,0 -3.06,-5.8 -3.06,-5.8 z" />
  <path
     inkscape:connector-curvature="0"
     id="path2291"
     style="fill:none;stroke:#263238;stroke-linecap:round;stroke-linejoin:round"
     d="m 190.37,149.16 c 0,0 2.54,-0.9 4,0.55" />
  <path
     inkscape:connector-curvature="0"
     id="path2293"
     style="fill:none;stroke:#263238;stroke-linecap:round;stroke-linejoin:round"
     d="m 199.43,150.61 c 0,0 2.9,-0.9 3.44,1.09" />
  <path
     inkscape:connector-curvature="0"
     id="path2295"
     style="fill:none;stroke:#263238;stroke-linecap:round;stroke-linejoin:round"
     d="M 190.19,146.08 A 4.09,4.09 0 0 1 194.9,145" />
  <path
     inkscape:connector-curvature="0"
     id="path2297"
     style="fill:none;stroke:#263238;stroke-linecap:round;stroke-linejoin:round"
     d="m 199.79,147 c 0,0 2.36,-2.18 4,1.81" />
</svg>
