<?xml version="1.0" encoding="UTF-8" standalone="no"?>
<!-- Created with Inkscape (http://www.inkscape.org/) -->

<svg
   xmlns:dc="http://purl.org/dc/elements/1.1/"
   xmlns:cc="http://creativecommons.org/ns#"
   xmlns:rdf="http://www.w3.org/1999/02/22-rdf-syntax-ns#"
   xmlns:svg="http://www.w3.org/2000/svg"
   xmlns="http://www.w3.org/2000/svg"
   xmlns:sodipodi="http://sodipodi.sourceforge.net/DTD/sodipodi-0.dtd"
   xmlns:inkscape="http://www.inkscape.org/namespaces/inkscape"
   width="64"
   height="64"
   viewBox="0 0 16.933333 16.933334"
   version="1.1"
   id="svg8"
   inkscape:version="0.92.5 (2060ec1f9f, 2020-04-08)"
   sodipodi:docname="letter_b.svg">
  <defs
     id="defs2" />
  <sodipodi:namedview
     id="base"
     pagecolor="#ffffff"
     bordercolor="#666666"
     borderopacity="1.0"
     inkscape:pageopacity="0.0"
     inkscape:pageshadow="2"
     inkscape:zoom="12.609375"
     inkscape:cx="36.940362"
     inkscape:cy="28.133972"
     inkscape:document-units="mm"
     inkscape:current-layer="text817"
     showgrid="false"
     units="px"
     inkscape:window-width="1920"
     inkscape:window-height="1007"
     inkscape:window-x="0"
     inkscape:window-y="0"
     inkscape:window-maximized="1" />
  <metadata
     id="metadata5">
    <rdf:RDF>
      <cc:Work
         rdf:about="">
        <dc:format>image/svg+xml</dc:format>
        <dc:type
           rdf:resource="http://purl.org/dc/dcmitype/StillImage" />
        <dc:title />
      </cc:Work>
    </rdf:RDF>
  </metadata>
  <g
     inkscape:label="Layer 1"
     inkscape:groupmode="layer"
     id="layer1"
     transform="translate(0,-280.06665)">
    <g
       aria-label="A"
       style="font-style:normal;font-weight:normal;font-size:10.58333302px;line-height:1.25;font-family:sans-serif;letter-spacing:0px;word-spacing:0px;fill:#e6e6e6;fill-opacity:1;stroke:none;stroke-width:0.26458332"
       id="text817">
      <g
         aria-label="B"
         style="font-style:normal;font-weight:normal;font-size:10.58333302px;line-height:1.25;font-family:sans-serif;letter-spacing:0px;word-spacing:0px;fill:#e6e6e6;fill-opacity:1;stroke:none;stroke-width:0.07000434"
         id="text1393">
        <path
           d="m 1.6594877,282.35587 h 2.8109332 q 1.4393332,0 2.0997332,0.67733 0.6604,0.6604 0.6604,2.04893 v 0.47414 q 0,0.9144 -0.3048,1.49013 -0.2878667,0.57573 -0.8974667,0.82973 v 0.0339 q 1.3885333,0.47413 1.3885333,2.47226 v 1.016 q 0,1.3716 -0.7281333,2.09974 -0.7111999,0.7112 -2.0997332,0.7112 H 1.6594877 Z m 2.5907998,4.826 q 0.5588,0 0.8297333,-0.28787 0.2878667,-0.28787 0.2878667,-0.9652 v -0.6604 q 0,-0.64347 -0.2370667,-0.93133 Q 4.9106875,284.0492 4.4196209,284.0492 H 3.5221542 v 3.13267 z m 0.3386667,5.33399 q 0.4910666,0 0.7281333,-0.254 0.2370666,-0.27093 0.2370666,-0.9144 v -1.03293 q 0,-0.8128 -0.2878666,-1.1176 -0.2709333,-0.32173 -0.9144,-0.32173 H 3.5221542 v 3.64066 z"
           style="font-style:normal;font-variant:normal;font-weight:normal;font-stretch:normal;font-size:16.93333244px;font-family:'Bebas Neue';-inkscape-font-specification:'Bebas Neue';fill:#e6e6e6;fill-opacity:1;stroke-width:0.07000434"
           id="path3319" />
      </g>
    </g>
  </g>
</svg>
