<?xml version="1.0" encoding="UTF-8" standalone="no"?>
<!-- Created with Inkscape (http://www.inkscape.org/) -->

<svg
   xmlns:dc="http://purl.org/dc/elements/1.1/"
   xmlns:cc="http://creativecommons.org/ns#"
   xmlns:rdf="http://www.w3.org/1999/02/22-rdf-syntax-ns#"
   xmlns:svg="http://www.w3.org/2000/svg"
   xmlns="http://www.w3.org/2000/svg"
   xmlns:sodipodi="http://sodipodi.sourceforge.net/DTD/sodipodi-0.dtd"
   xmlns:inkscape="http://www.inkscape.org/namespaces/inkscape"
   width="200"
   height="200"
   viewBox="0 0 52.916665 52.916668"
   version="1.1"
   id="svg8"
   inkscape:version="0.92.5 (2060ec1f9f, 2020-04-08)"
   sodipodi:docname="TurkcePromo.svg">
  <defs
     id="defs2" />
  <sodipodi:namedview
     id="base"
     pagecolor="#ffffff"
     bordercolor="#666666"
     borderopacity="1.0"
     inkscape:pageopacity="0.0"
     inkscape:pageshadow="2"
     inkscape:zoom="4.2"
     inkscape:cx="100"
     inkscape:cy="100"
     inkscape:document-units="mm"
     inkscape:current-layer="layer1"
     showgrid="false"
     units="px"
     inkscape:window-width="1920"
     inkscape:window-height="1028"
     inkscape:window-x="0"
     inkscape:window-y="0"
     inkscape:window-maximized="1" />
  <metadata
     id="metadata5">
    <rdf:RDF>
      <cc:Work
         rdf:about="">
        <dc:format>image/svg+xml</dc:format>
        <dc:type
           rdf:resource="http://purl.org/dc/dcmitype/StillImage" />
        <dc:title></dc:title>
      </cc:Work>
    </rdf:RDF>
  </metadata>
  <g
     inkscape:label="Layer 1"
     inkscape:groupmode="layer"
     id="layer1"
     transform="translate(0,-244.08332)">
    <flowRoot
       xml:space="preserve"
       id="flowRoot888"
       style="fill:black;fill-opacity:1;stroke:none;font-family:sans-serif;font-style:normal;font-weight:normal;font-size:40px;line-height:1.25;letter-spacing:0px;word-spacing:0px"><flowRegion
         id="flowRegion890"><rect
           id="rect892"
           width="106.19048"
           height="59.285713"
           x="81.190475"
           y="72.85714" /></flowRegion><flowPara
         id="flowPara894"></flowPara></flowRoot>    <path
       inkscape:connector-curvature="0"
       d="m 35.824286,277.04497 c 2.049046,-1.21407 3.426124,-3.4476 3.426124,-5.99703 0,-3.84091 -3.12475,-6.96574 -6.965658,-6.96574 -0.370286,0 -0.733772,0.0293 -1.088607,0.0853 -1.343163,-1.28251 -3.161755,-2.07121 -5.161126,-2.07121 -1.999293,0 -3.817886,0.78862 -5.161126,2.07121 -0.354834,-0.0559 -0.718321,-0.0853 -1.088529,-0.0853 -3.840908,0 -6.965736,3.12483 -6.965736,6.96574 0,2.54951 1.377078,4.78304 3.426124,5.99703 -5.109829,1.52657 -8.8455924,6.26928 -8.8455924,11.86898 0,0.41007 0.3323528,0.74243 0.7424246,0.74243 H 43.927531 c 0.409995,0 0.742425,-0.33236 0.742425,-0.74243 -7.7e-5,-5.59963 -3.735764,-10.34241 -8.84567,-11.86898 z m -3.47688,-11.47637 c 2.993261,0.0338 5.418155,2.47804 5.418155,5.47918 0,3.02216 -2.458731,5.48089 -5.480887,5.48089 -0.856608,0 -1.667713,-0.19785 -2.390592,-0.54975 2.167633,-1.3111 3.619649,-3.69111 3.619649,-6.40393 0,-1.47288 -0.428227,-2.84756 -1.166325,-4.00639 z m -10.967104,0.23578 c 0.349426,-0.43054 0.75749,-0.81118 1.211597,-1.13117 0.974964,-0.68711 2.162302,-1.09216 3.443043,-1.09216 1.28074,0 2.468079,0.40512 3.443274,1.09216 0.454108,0.31991 0.862171,0.70055 1.211597,1.13117 0.836445,1.03074 1.339069,2.34285 1.339069,3.77061 0,2.41832 -1.440428,4.50522 -3.507706,5.45176 -0.497139,0.22767 -1.029815,0.39045 -1.588294,0.47466 -0.29303,0.0442 -0.592858,0.0674 -0.89794,0.0674 -0.305159,0 -0.60491,-0.0233 -0.89794,-0.0674 -0.558402,-0.0842 -1.091156,-0.24699 -1.588294,-0.47466 -2.067278,-0.94654 -3.507706,-3.03344 -3.507706,-5.45176 2.32e-4,-1.42776 0.502778,-2.73987 1.3393,-3.77061 z m -7.075902,5.2434 c 0,-3.00114 2.424894,-5.44542 5.418155,-5.47926 -0.738175,1.15891 -1.166325,2.53352 -1.166325,4.00639 0,2.7129 1.452093,5.09291 3.619726,6.40401 -0.722956,0.3519 -1.534061,0.54975 -2.390592,0.54975 -3.022233,0 -5.480964,-2.45865 -5.480964,-5.48089 z m -5.3943603,17.12375 c 0.3466451,-5.13007 4.2586283,-9.29792 9.2718103,-10.04012 -3.139043,2.29256 -5.243789,5.91993 -5.470843,10.04012 z m 5.2877483,-8e-5 c 0.278505,-4.48576 3.062405,-8.3038 6.965272,-10.06955 0.871518,-0.39431 1.798815,-0.6861 2.76644,-0.86024 0.683556,-0.12299 1.387044,-0.18796 2.105442,-0.18796 0.718475,0 1.421809,0.0649 2.105365,0.18796 0.967779,0.17414 1.894998,0.46601 2.766439,0.86024 3.902868,1.76567 6.686767,5.58379 6.965273,10.06955 z m 25.161243,0 c -0.227053,-4.12019 -2.331723,-7.74764 -5.470843,-10.04011 5.013182,0.74227 8.925165,4.91012 9.27181,10.04011 z"
       id="path1482"
       style="stroke-width:0.07725543" />
    <g
       transform="matrix(0.07725543,0,0,0.07725543,6.257629,250.10152)"
       id="g1492"
       style="fill:#000080">
      <g
         id="g1490"
         style="fill:#000080">
        <path
           inkscape:connector-curvature="0"
           d="m 199.185,385.503 c -2.723,-4.556 -8.622,-6.043 -13.178,-3.321 -31.371,18.741 -54.238,49.78 -62.739,85.159 -1.24,5.161 1.938,10.349 7.099,11.589 0.755,0.182 1.509,0.268 2.253,0.268 4.34,0 8.278,-2.962 9.336,-7.367 7.301,-30.381 26.949,-57.044 53.909,-73.151 4.555,-2.719 6.043,-8.621 3.32,-13.177 z"
           id="path1488"
           style="fill:#000080" />
      </g>
    </g>
    <g
       transform="matrix(0.07725543,0,0,0.07725543,6.257629,250.10152)"
       id="g1498"
       style="fill:#000080">
      <g
         id="g1496"
         style="fill:#000080">
        <path
           inkscape:connector-curvature="0"
           d="m 257.495,363.117 c -0.54,-0.094 -1.09,-0.153 -1.657,-0.153 -0.521,0 -1.042,0.016 -1.564,0.022 -10.146,0.115 -20.242,1.335 -30.033,3.659 -1.535,0.364 -2.889,1.084 -4.012,2.042 -2.654,2.266 -3.981,5.897 -3.119,9.527 1.049,4.418 4.99,7.393 9.343,7.393 0.734,0 1.481,-0.085 2.227,-0.262 6.732,-1.597 13.634,-2.592 20.597,-2.977 2.183,-0.12 4.37,-0.186 6.561,-0.186 5.308,0 9.611,-4.302 9.611,-9.61 0,-4.739 -3.438,-8.668 -7.954,-9.455 z"
           id="path1494"
           style="fill:#000080" />
      </g>
    </g>
    <g
       transform="matrix(0.07725543,0,0,0.07725543,6.257629,250.10152)"
       id="g1504"
       style="fill:#ff0000">
      <g
         id="g1502"
         style="fill:#ff0000">
        <path
           inkscape:connector-curvature="0"
           d="M 222.612,0 H 75.692 C 51.41,0 31.656,19.754 31.656,44.035 v 124.214 c 0,4.121 2.48,7.837 6.286,9.418 1.265,0.526 2.594,0.781 3.911,0.781 2.647,0 5.25,-1.031 7.199,-2.972 L 64.805,159.79 c 10.98,-10.936 25.563,-16.958 41.061,-16.958 h 116.746 c 24.282,0 44.036,-19.754 44.036,-44.035 V 44.035 C 266.648,19.754 246.894,0 222.612,0 Z m 23.638,98.797 c 0,13.034 -10.604,23.637 -23.638,23.637 H 105.866 c -20.168,0 -39.185,7.552 -53.811,21.312 V 44.035 c 0,-13.034 10.604,-23.637 23.638,-23.637 h 146.919 c 13.035,0 23.638,10.604 23.638,23.637 z"
           id="path1500"
           style="fill:#ff0000" />
      </g>
    </g>
    <g
       transform="matrix(0.07725543,0,0,0.07725543,6.257629,250.10152)"
       id="g1510">
      <g
         id="g1508">
        <path
           inkscape:connector-curvature="0"
           d="M 221.499,43.105 H 76.805 c -5.632,0 -10.199,4.567 -10.199,10.199 0,5.632 4.567,10.199 10.199,10.199 h 144.694 c 5.632,0 10.199,-4.567 10.199,-10.199 0,-5.632 -4.567,-10.199 -10.199,-10.199 z"
           id="path1506" />
      </g>
    </g>
    <g
       transform="matrix(0.07725543,0,0,0.07725543,6.257629,250.10152)"
       id="g1516">
      <g
         id="g1514">
        <path
           inkscape:connector-curvature="0"
           d="M 221.499,79.599 H 76.805 c -5.632,0 -10.199,4.567 -10.199,10.199 0,5.632 4.567,10.199 10.199,10.199 h 144.694 c 5.632,0 10.199,-4.567 10.199,-10.199 0,-5.632 -4.567,-10.199 -10.199,-10.199 z"
           id="path1512" />
      </g>
    </g>
    <g
       transform="matrix(0.07725543,0,0,0.07725543,6.257629,250.10152)"
       id="g1522"
       style="fill:#000080">
      <g
         id="g1520"
         style="fill:#000080">
        <path
           inkscape:connector-curvature="0"
           d="M 445.99,36.685 H 333.172 c -19.952,0 -36.183,16.231 -36.183,36.183 v 42.049 c 0,19.951 16.231,36.182 36.183,36.182 h 89.647 c 11.269,0 21.874,4.38 29.859,12.333 l 12.095,12.045 c 1.951,1.942 4.552,2.972 7.2,2.972 1.318,0 2.647,-0.255 3.912,-0.781 3.805,-1.58 6.286,-5.296 6.286,-9.418 V 72.867 c 0,-19.951 -16.231,-36.182 -36.181,-36.182 z m 15.781,107.57 c -11.044,-8.785 -24.635,-13.554 -38.953,-13.554 h -89.647 c -8.704,0 -15.784,-7.08 -15.784,-15.783 v -42.05 c 0,-8.704 7.081,-15.784 15.784,-15.784 v -0.001 h 112.816 c 8.704,0 15.783,7.081 15.783,15.784 v 71.388 z"
           id="path1518"
           style="fill:#000080" />
      </g>
    </g>
    <g
       transform="matrix(0.07725543,0,0,0.07725543,6.257629,250.10152)"
       id="g1528">
      <g
         id="g1526">
        <path
           inkscape:connector-curvature="0"
           d="m 435.555,85.251 h -91.95 c -5.632,0 -10.199,4.567 -10.199,10.199 0,5.632 4.567,10.199 10.199,10.199 h 91.95 c 5.632,0 10.199,-4.567 10.199,-10.199 0,-5.632 -4.567,-10.199 -10.199,-10.199 z"
           id="path1524" />
      </g>
    </g>
    <g
       transform="matrix(0.07725543,0,0,0.07725543,-50.186925,247.03739)"
       id="g1530" />
    <g
       transform="matrix(0.07725543,0,0,0.07725543,-50.186925,247.03739)"
       id="g1532" />
    <g
       transform="matrix(0.07725543,0,0,0.07725543,-50.186925,247.03739)"
       id="g1534" />
    <g
       transform="matrix(0.07725543,0,0,0.07725543,-50.186925,247.03739)"
       id="g1536" />
    <g
       transform="matrix(0.07725543,0,0,0.07725543,-50.186925,247.03739)"
       id="g1538" />
    <g
       transform="matrix(0.07725543,0,0,0.07725543,-50.186925,247.03739)"
       id="g1540" />
    <g
       transform="matrix(0.07725543,0,0,0.07725543,-50.186925,247.03739)"
       id="g1542" />
    <g
       transform="matrix(0.07725543,0,0,0.07725543,-50.186925,247.03739)"
       id="g1544" />
    <g
       transform="matrix(0.07725543,0,0,0.07725543,-50.186925,247.03739)"
       id="g1546" />
    <g
       transform="matrix(0.07725543,0,0,0.07725543,-50.186925,247.03739)"
       id="g1548" />
    <g
       transform="matrix(0.07725543,0,0,0.07725543,-50.186925,247.03739)"
       id="g1550" />
    <g
       transform="matrix(0.07725543,0,0,0.07725543,-50.186925,247.03739)"
       id="g1552" />
    <g
       transform="matrix(0.07725543,0,0,0.07725543,-50.186925,247.03739)"
       id="g1554" />
    <g
       transform="matrix(0.07725543,0,0,0.07725543,-50.186925,247.03739)"
       id="g1556" />
    <g
       transform="matrix(0.07725543,0,0,0.07725543,-50.186925,247.03739)"
       id="g1558" />
  </g>
</svg>
